<?xml version="1.0" encoding="UTF-8" standalone="no"?>
<!DOCTYPE svg PUBLIC "-//W3C//DTD SVG 1.1//EN"
 "http://www.w3.org/Graphics/SVG/1.1/DTD/svg11.dtd">
<!-- Generated by graphviz version 2.47.3 (20210619.1520)
 -->
<!-- Pages: 1 -->
<svg width="858pt" height="287pt"
 viewBox="0.00 0.00 858.00 287.48" xmlns="http://www.w3.org/2000/svg" xmlns:xlink="http://www.w3.org/1999/xlink">
<g id="graph0" class="graph" transform="scale(1 1) rotate(0) translate(4 283.48)">
<polygon fill="white" stroke="transparent" points="-4,4 -4,-283.48 854,-283.48 854,4 -4,4"/>
<g id="clust1" class="cluster">
<title>cluster_140196869499728</title>
</g>
<!-- node_3 -->
<g id="node_3" class="node">
<title>node_3</title>
<g id="a_node_3"><a xlink:title="Bobby = Throw">
<ellipse fill="#ffffff" stroke="black" cx="507" cy="-236.61" rx="74.91" ry="26.74"/>
<text text-anchor="middle" x="507" y="-240.41" font-family="Times,serif" font-size="14.00" fill="#000000">Bobby = Throw</text>
<text text-anchor="middle" x="507" y="-225.41" font-family="Times,serif" font-size="14.00" fill="#000000">{}</text>
</a>
</g>
</g>
<!-- node_7 -->
<g id="node_7" class="node">
<title>node_7</title>
<g id="a_node_7"><a xlink:title="Bottle_shatters_if_Bobby_Throws">
<polygon fill="#ffffff" stroke="black" points="612,-158.74 402,-158.74 402,-120.74 612,-120.74 612,-158.74"/>
<text text-anchor="middle" x="507" y="-143.54" font-family="Times,serif" font-size="14.00" fill="#000000">Bottle_shatters_if_Bobby_Throws</text>
<text text-anchor="middle" x="507" y="-128.54" font-family="Times,serif" font-size="14.00" fill="#000000">True</text>
</a>
</g>
</g>
<!-- node_3&#45;&gt;node_7 -->
<g id="edge3" class="edge">
<title>node_3&#45;&gt;node_7</title>
<path fill="none" stroke="black" d="M507,-209.69C507,-197.09 507,-181.91 507,-169.02"/>
<polygon fill="black" stroke="black" points="510.5,-168.82 507,-158.82 503.5,-168.82 510.5,-168.82"/>
<text text-anchor="middle" x="514" y="-180.54" font-family="Times,serif" font-size="14.00"> 1 </text>
</g>
<!-- node_6 -->
<g id="node_6" class="node">
<title>node_6</title>
<g id="a_node_6"><a xlink:title="Bottle_shatters_if_Susie_Throws">
<polygon fill="#ffffff" stroke="black" points="833.5,-158.74 630.5,-158.74 630.5,-120.74 833.5,-120.74 833.5,-158.74"/>
<text text-anchor="middle" x="732" y="-143.54" font-family="Times,serif" font-size="14.00" fill="#000000">Bottle_shatters_if_Susie_Throws</text>
<text text-anchor="middle" x="732" y="-128.54" font-family="Times,serif" font-size="14.00" fill="#000000">True</text>
</a>
</g>
</g>
<!-- node_5 -->
<g id="node_5" class="node">
<title>node_5</title>
<g id="a_node_5"><a xlink:title="Bottle = Shatters">
<ellipse fill="#ffffff" stroke="black" cx="620" cy="-42.87" rx="78.48" ry="26.74"/>
<text text-anchor="middle" x="620" y="-46.67" font-family="Times,serif" font-size="14.00" fill="#000000">Bottle = Shatters</text>
<text text-anchor="middle" x="620" y="-31.67" font-family="Times,serif" font-size="14.00" fill="#000000">{}</text>
</a>
</g>
</g>
<!-- node_6&#45;&gt;node_5 -->
<g id="edge2" class="edge">
<title>node_6&#45;&gt;node_5</title>
<path fill="none" stroke="black" d="M710.67,-120.67C695.37,-107.71 674.38,-89.93 656.44,-74.74"/>
<polygon fill="black" stroke="black" points="658.34,-71.76 648.45,-67.97 653.82,-77.1 658.34,-71.76"/>
<text text-anchor="middle" x="696" y="-91.54" font-family="Times,serif" font-size="14.00"> 1 </text>
</g>
<!-- node_8 -->
<g id="node_8" class="node">
<title>node_8</title>
<g id="a_node_8"><a xlink:title="Bottle_does_not_shatter_if_Susie_and_Bobby_do_not_Throw">
<polygon fill="#ffffff" stroke="black" points="383.5,-158.74 16.5,-158.74 16.5,-120.74 383.5,-120.74 383.5,-158.74"/>
<text text-anchor="middle" x="200" y="-143.54" font-family="Times,serif" font-size="14.00" fill="#000000">Bottle_does_not_shatter_if_Susie_and_Bobby_do_not_Throw</text>
<text text-anchor="middle" x="200" y="-128.54" font-family="Times,serif" font-size="14.00" fill="#000000">True</text>
</a>
</g>
</g>
<!-- node_4 -->
<g id="node_4" class="node">
<title>node_4</title>
<g id="a_node_4"><a xlink:title="Bottle = NoShatter">
<ellipse fill="#ffffff" stroke="black" cx="200" cy="-42.87" rx="86.03" ry="26.74"/>
<text text-anchor="middle" x="200" y="-46.67" font-family="Times,serif" font-size="14.00" fill="#000000">Bottle = NoShatter</text>
<text text-anchor="middle" x="200" y="-31.67" font-family="Times,serif" font-size="14.00" fill="#000000">{}</text>
</a>
</g>
</g>
<!-- node_8&#45;&gt;node_4 -->
<g id="edge7" class="edge">
<title>node_8&#45;&gt;node_4</title>
<path fill="none" stroke="black" d="M200,-120.45C200,-109.03 200,-93.95 200,-80.18"/>
<polygon fill="black" stroke="black" points="203.5,-80 200,-70 196.5,-80 203.5,-80"/>
<text text-anchor="middle" x="207" y="-91.54" font-family="Times,serif" font-size="14.00"> 1 </text>
</g>
<!-- node_2 -->
<g id="node_2" class="node">
<title>node_2</title>
<g id="a_node_2"><a xlink:title="Bobby = NoThrow">
<ellipse fill="#ffffff" stroke="black" cx="126" cy="-236.61" rx="86.95" ry="26.74"/>
<text text-anchor="middle" x="126" y="-240.41" font-family="Times,serif" font-size="14.00" fill="#000000">Bobby = NoThrow</text>
<text text-anchor="middle" x="126" y="-225.41" font-family="Times,serif" font-size="14.00" fill="#000000">{}</text>
</a>
</g>
</g>
<!-- node_2&#45;&gt;node_8 -->
<g id="edge6" class="edge">
<title>node_2&#45;&gt;node_8</title>
<path fill="none" stroke="black" d="M145.83,-210.19C156.25,-196.82 169.01,-180.47 179.53,-166.98"/>
<polygon fill="black" stroke="black" points="182.36,-169.05 185.75,-159.01 176.84,-164.75 182.36,-169.05"/>
<text text-anchor="middle" x="178" y="-180.54" font-family="Times,serif" font-size="14.00"> 1 </text>
</g>
<!-- node_7&#45;&gt;node_5 -->
<g id="edge4" class="edge">
<title>node_7&#45;&gt;node_5</title>
<path fill="none" stroke="black" d="M528.52,-120.67C543.96,-107.71 565.14,-89.93 583.23,-74.74"/>
<polygon fill="black" stroke="black" points="585.89,-77.08 591.3,-67.97 581.39,-71.72 585.89,-77.08"/>
<text text-anchor="middle" x="573" y="-91.54" font-family="Times,serif" font-size="14.00"> 1 </text>
</g>
<!-- node_1 -->
<g id="node_1" class="node">
<title>node_1</title>
<g id="a_node_1"><a xlink:title="Susie= Throw">
<ellipse fill="#ffffff" stroke="black" cx="732" cy="-236.61" rx="67.35" ry="26.74"/>
<text text-anchor="middle" x="732" y="-240.41" font-family="Times,serif" font-size="14.00" fill="#000000">Susie= Throw</text>
<text text-anchor="middle" x="732" y="-225.41" font-family="Times,serif" font-size="14.00" fill="#000000">{}</text>
</a>
</g>
</g>
<!-- node_1&#45;&gt;node_6 -->
<g id="edge1" class="edge">
<title>node_1&#45;&gt;node_6</title>
<path fill="none" stroke="black" d="M732,-209.69C732,-197.09 732,-181.91 732,-169.02"/>
<polygon fill="black" stroke="black" points="735.5,-168.82 732,-158.82 728.5,-168.82 735.5,-168.82"/>
<text text-anchor="middle" x="739" y="-180.54" font-family="Times,serif" font-size="14.00"> 1 </text>
</g>
<!-- node_0 -->
<g id="node_0" class="node">
<title>node_0</title>
<g id="a_node_0"><a xlink:title="Susie= NoThrow">
<ellipse fill="#ffffff" stroke="black" cx="311" cy="-236.61" rx="79.81" ry="26.74"/>
<text text-anchor="middle" x="311" y="-240.41" font-family="Times,serif" font-size="14.00" fill="#000000">Susie= NoThrow</text>
<text text-anchor="middle" x="311" y="-225.41" font-family="Times,serif" font-size="14.00" fill="#000000">{}</text>
</a>
</g>
</g>
<!-- node_0&#45;&gt;node_8 -->
<g id="edge5" class="edge">
<title>node_0&#45;&gt;node_8</title>
<path fill="none" stroke="black" d="M282.7,-211.42C266.25,-197.37 245.57,-179.69 229,-165.53"/>
<polygon fill="black" stroke="black" points="231.11,-162.73 221.23,-158.89 226.56,-168.05 231.11,-162.73"/>
<text text-anchor="middle" x="265" y="-180.54" font-family="Times,serif" font-size="14.00"> 1 </text>
</g>
</g>
</svg>
