<?xml version="1.0" encoding="UTF-8" standalone="no"?>
<!DOCTYPE svg PUBLIC "-//W3C//DTD SVG 1.1//EN"
 "http://www.w3.org/Graphics/SVG/1.1/DTD/svg11.dtd">
<!-- Generated by graphviz version 2.47.3 (20210619.1520)
 -->
<!-- Pages: 1 -->
<svg width="472pt" height="287pt"
 viewBox="0.00 0.00 472.00 287.48" xmlns="http://www.w3.org/2000/svg" xmlns:xlink="http://www.w3.org/1999/xlink">
<g id="graph0" class="graph" transform="scale(1 1) rotate(0) translate(4 283.48)">
<polygon fill="white" stroke="transparent" points="-4,4 -4,-283.48 468,-283.48 468,4 -4,4"/>
<g id="clust1" class="cluster">
<title>cluster_140196326549248</title>
</g>
<!-- node_2 -->
<g id="node_2" class="node">
<title>node_2</title>
<g id="a_node_2"><a xlink:title="BottleShatters">
<ellipse fill="#ffffff" stroke="black" cx="234" cy="-42.87" rx="67.76" ry="26.74"/>
<text text-anchor="middle" x="234" y="-46.67" font-family="Times,serif" font-size="14.00" fill="#000000">BottleShatters</text>
<text text-anchor="middle" x="234" y="-31.67" font-family="Times,serif" font-size="14.00" fill="#000000">{}</text>
</a>
</g>
</g>
<!-- node_3 -->
<g id="node_3" class="node">
<title>node_3</title>
<g id="a_node_3"><a xlink:title="Bottle_shatters_if_Susie_Throws">
<polygon fill="#ffffff" stroke="black" points="447.5,-158.74 244.5,-158.74 244.5,-120.74 447.5,-120.74 447.5,-158.74"/>
<text text-anchor="middle" x="346" y="-143.54" font-family="Times,serif" font-size="14.00" fill="#000000">Bottle_shatters_if_Susie_Throws</text>
<text text-anchor="middle" x="346" y="-128.54" font-family="Times,serif" font-size="14.00" fill="#000000">True</text>
</a>
</g>
</g>
<!-- node_3&#45;&gt;node_2 -->
<g id="edge2" class="edge">
<title>node_3&#45;&gt;node_2</title>
<path fill="none" stroke="black" d="M324.67,-120.67C309.26,-107.62 288.07,-89.67 270.06,-74.41"/>
<polygon fill="black" stroke="black" points="271.92,-71.41 262.03,-67.61 267.4,-76.75 271.92,-71.41"/>
<text text-anchor="middle" x="310" y="-91.54" font-family="Times,serif" font-size="14.00"> 1 </text>
</g>
<!-- node_4 -->
<g id="node_4" class="node">
<title>node_4</title>
<g id="a_node_4"><a xlink:title="Bottle_shatters_if_Bobby_Throws">
<polygon fill="#ffffff" stroke="black" points="226,-158.74 16,-158.74 16,-120.74 226,-120.74 226,-158.74"/>
<text text-anchor="middle" x="121" y="-143.54" font-family="Times,serif" font-size="14.00" fill="#000000">Bottle_shatters_if_Bobby_Throws</text>
<text text-anchor="middle" x="121" y="-128.54" font-family="Times,serif" font-size="14.00" fill="#000000">True</text>
</a>
</g>
</g>
<!-- node_4&#45;&gt;node_2 -->
<g id="edge4" class="edge">
<title>node_4&#45;&gt;node_2</title>
<path fill="none" stroke="black" d="M142.52,-120.67C158.07,-107.62 179.44,-89.67 197.62,-74.41"/>
<polygon fill="black" stroke="black" points="200.31,-76.73 205.72,-67.61 195.81,-71.36 200.31,-76.73"/>
<text text-anchor="middle" x="187" y="-91.54" font-family="Times,serif" font-size="14.00"> 1 </text>
</g>
<!-- node_0 -->
<g id="node_0" class="node">
<title>node_0</title>
<g id="a_node_0"><a xlink:title="SusieThrows">
<ellipse fill="#ffffff" stroke="black" cx="346" cy="-236.61" rx="63.78" ry="26.74"/>
<text text-anchor="middle" x="346" y="-240.41" font-family="Times,serif" font-size="14.00" fill="#000000">SusieThrows</text>
<text text-anchor="middle" x="346" y="-225.41" font-family="Times,serif" font-size="14.00" fill="#000000">{}</text>
</a>
</g>
</g>
<!-- node_0&#45;&gt;node_3 -->
<g id="edge1" class="edge">
<title>node_0&#45;&gt;node_3</title>
<path fill="none" stroke="black" d="M346,-209.69C346,-197.09 346,-181.91 346,-169.02"/>
<polygon fill="black" stroke="black" points="349.5,-168.82 346,-158.82 342.5,-168.82 349.5,-168.82"/>
<text text-anchor="middle" x="353" y="-180.54" font-family="Times,serif" font-size="14.00"> 1 </text>
</g>
<!-- node_1 -->
<g id="node_1" class="node">
<title>node_1</title>
<g id="a_node_1"><a xlink:title="BobbyThrows">
<ellipse fill="#ffffff" stroke="black" cx="121" cy="-236.61" rx="68.68" ry="26.74"/>
<text text-anchor="middle" x="121" y="-240.41" font-family="Times,serif" font-size="14.00" fill="#000000">BobbyThrows</text>
<text text-anchor="middle" x="121" y="-225.41" font-family="Times,serif" font-size="14.00" fill="#000000">{}</text>
</a>
</g>
</g>
<!-- node_1&#45;&gt;node_4 -->
<g id="edge3" class="edge">
<title>node_1&#45;&gt;node_4</title>
<path fill="none" stroke="black" d="M121,-209.69C121,-197.09 121,-181.91 121,-169.02"/>
<polygon fill="black" stroke="black" points="124.5,-168.82 121,-158.82 117.5,-168.82 124.5,-168.82"/>
<text text-anchor="middle" x="128" y="-180.54" font-family="Times,serif" font-size="14.00"> 1 </text>
</g>
</g>
</svg>
