<?xml version="1.0" encoding="UTF-8" standalone="no"?>
<!DOCTYPE svg PUBLIC "-//W3C//DTD SVG 1.1//EN"
 "http://www.w3.org/Graphics/SVG/1.1/DTD/svg11.dtd">
<!-- Generated by graphviz version 3.0.0 (20220226.1711)
 -->
<!-- Pages: 1 -->
<svg width="508pt" height="675pt"
 viewBox="0.00 0.00 508.00 674.96" xmlns="http://www.w3.org/2000/svg" xmlns:xlink="http://www.w3.org/1999/xlink">
<g id="graph0" class="graph" transform="scale(1 1) rotate(0) translate(4 670.96)">
<polygon fill="white" stroke="transparent" points="-4,4 -4,-670.96 504,-670.96 504,4 -4,4"/>
<g id="clust1" class="cluster">
<title>cluster_140579721918784</title>
</g>
<!-- node_6 -->
<g id="node_6" class="node">
<title>node_6</title>
<g id="a_node_6"><a xlink:title="rifleman_A_shoots_if_captain_signals">
<polygon fill="#ffffff" stroke="black" points="241.5,-352.48 16.5,-352.48 16.5,-314.48 241.5,-314.48 241.5,-352.48"/>
<text text-anchor="middle" x="129" y="-337.28" font-family="Times,serif" font-size="14.00" fill="#000000">rifleman_A_shoots_if_captain_signals</text>
<text text-anchor="middle" x="129" y="-322.28" font-family="Times,serif" font-size="14.00" fill="#000000">True</text>
</a>
</g>
</g>
<!-- node_2 -->
<g id="node_2" class="node">
<title>node_2</title>
<g id="a_node_2"><a xlink:title="RiflemanA = Shoots">
<ellipse fill="#ffffff" stroke="black" cx="134" cy="-236.61" rx="90.52" ry="26.74"/>
<text text-anchor="middle" x="134" y="-240.41" font-family="Times,serif" font-size="14.00" fill="#000000">RiflemanA = Shoots</text>
<text text-anchor="middle" x="134" y="-225.41" font-family="Times,serif" font-size="14.00" fill="#000000">{}</text>
</a>
</g>
</g>
<!-- node_6&#45;&gt;node_2 -->
<g id="edge4" class="edge">
<title>node_6&#45;&gt;node_2</title>
<path fill="none" stroke="black" d="M129.96,-314.19C130.57,-302.78 131.36,-287.69 132.09,-273.92"/>
<polygon fill="black" stroke="black" points="135.59,-273.91 132.62,-263.74 128.6,-273.54 135.59,-273.91"/>
<text text-anchor="middle" x="138.5" y="-285.28" font-family="Times,serif" font-size="14.00"> 1 </text>
</g>
<!-- node_3 -->
<g id="node_3" class="node">
<title>node_3</title>
<g id="a_node_3"><a xlink:title="RiflemanB = Shoots">
<ellipse fill="#ffffff" stroke="black" cx="371" cy="-236.61" rx="90.52" ry="26.74"/>
<text text-anchor="middle" x="371" y="-240.41" font-family="Times,serif" font-size="14.00" fill="#000000">RiflemanB = Shoots</text>
<text text-anchor="middle" x="371" y="-225.41" font-family="Times,serif" font-size="14.00" fill="#000000">{}</text>
</a>
</g>
</g>
<!-- node_9 -->
<g id="node_9" class="node">
<title>node_9</title>
<g id="a_node_9"><a xlink:title="prisoner_dies_if_rifleman_B_shoots">
<polygon fill="#ffffff" stroke="black" points="477,-158.74 263,-158.74 263,-120.74 477,-120.74 477,-158.74"/>
<text text-anchor="middle" x="370" y="-143.54" font-family="Times,serif" font-size="14.00" fill="#000000">prisoner_dies_if_rifleman_B_shoots</text>
<text text-anchor="middle" x="370" y="-128.54" font-family="Times,serif" font-size="14.00" fill="#000000">True</text>
</a>
</g>
</g>
<!-- node_3&#45;&gt;node_9 -->
<g id="edge9" class="edge">
<title>node_3&#45;&gt;node_9</title>
<path fill="none" stroke="black" d="M370.73,-209.69C370.59,-197.09 370.43,-181.91 370.3,-169.02"/>
<polygon fill="black" stroke="black" points="373.8,-168.78 370.19,-158.82 366.8,-168.86 373.8,-168.78"/>
<text text-anchor="middle" x="377.5" y="-180.54" font-family="Times,serif" font-size="14.00"> 1 </text>
</g>
<!-- node_4 -->
<g id="node_4" class="node">
<title>node_4</title>
<g id="a_node_4"><a xlink:title="Prisoner = Dies">
<ellipse fill="#ffffff" stroke="black" cx="253" cy="-42.87" rx="72.25" ry="26.74"/>
<text text-anchor="middle" x="253" y="-46.67" font-family="Times,serif" font-size="14.00" fill="#000000">Prisoner = Dies</text>
<text text-anchor="middle" x="253" y="-31.67" font-family="Times,serif" font-size="14.00" fill="#000000">{}</text>
</a>
</g>
</g>
<!-- node_9&#45;&gt;node_4 -->
<g id="edge10" class="edge">
<title>node_9&#45;&gt;node_4</title>
<path fill="none" stroke="black" d="M347.72,-120.67C331.47,-107.5 309.09,-89.35 290.16,-74"/>
<polygon fill="black" stroke="black" points="292.26,-71.19 282.28,-67.61 287.85,-76.63 292.26,-71.19"/>
<text text-anchor="middle" x="332.5" y="-91.54" font-family="Times,serif" font-size="14.00"> 1 </text>
</g>
<!-- node_1 -->
<g id="node_1" class="node">
<title>node_1</title>
<g id="a_node_1"><a xlink:title="Captain = Signals">
<ellipse fill="#ffffff" stroke="black" cx="250" cy="-430.35" rx="80.72" ry="26.74"/>
<text text-anchor="middle" x="250" y="-434.15" font-family="Times,serif" font-size="14.00" fill="#000000">Captain = Signals</text>
<text text-anchor="middle" x="250" y="-419.15" font-family="Times,serif" font-size="14.00" fill="#000000">{}</text>
</a>
</g>
</g>
<!-- node_1&#45;&gt;node_6 -->
<g id="edge3" class="edge">
<title>node_1&#45;&gt;node_6</title>
<path fill="none" stroke="black" d="M219.47,-405.41C201.37,-391.23 178.5,-373.29 160.28,-359"/>
<polygon fill="black" stroke="black" points="162.3,-356.14 152.27,-352.72 157.98,-361.65 162.3,-356.14"/>
<text text-anchor="middle" x="200.5" y="-374.28" font-family="Times,serif" font-size="14.00"> 1 </text>
</g>
<!-- node_7 -->
<g id="node_7" class="node">
<title>node_7</title>
<g id="a_node_7"><a xlink:title="rifleman_B_shoots_if_captain_signals">
<polygon fill="#ffffff" stroke="black" points="484,-352.48 260,-352.48 260,-314.48 484,-314.48 484,-352.48"/>
<text text-anchor="middle" x="372" y="-337.28" font-family="Times,serif" font-size="14.00" fill="#000000">rifleman_B_shoots_if_captain_signals</text>
<text text-anchor="middle" x="372" y="-322.28" font-family="Times,serif" font-size="14.00" fill="#000000">True</text>
</a>
</g>
</g>
<!-- node_1&#45;&gt;node_7 -->
<g id="edge5" class="edge">
<title>node_1&#45;&gt;node_7</title>
<path fill="none" stroke="black" d="M280.79,-405.41C299.03,-391.23 322.09,-373.29 340.46,-359"/>
<polygon fill="black" stroke="black" points="342.79,-361.62 348.54,-352.72 338.5,-356.1 342.79,-361.62"/>
<text text-anchor="middle" x="332.5" y="-374.28" font-family="Times,serif" font-size="14.00"> 1 </text>
</g>
<!-- node_7&#45;&gt;node_3 -->
<g id="edge6" class="edge">
<title>node_7&#45;&gt;node_3</title>
<path fill="none" stroke="black" d="M371.81,-314.19C371.69,-302.78 371.53,-287.69 371.38,-273.92"/>
<polygon fill="black" stroke="black" points="374.88,-273.7 371.28,-263.74 367.88,-273.77 374.88,-273.7"/>
<text text-anchor="middle" x="378.5" y="-285.28" font-family="Times,serif" font-size="14.00"> 1 </text>
</g>
<!-- node_5 -->
<g id="node_5" class="node">
<title>node_5</title>
<g id="a_node_5"><a xlink:title="captain_signals_if_court_orders">
<polygon fill="#ffffff" stroke="black" points="345,-546.22 155,-546.22 155,-508.22 345,-508.22 345,-546.22"/>
<text text-anchor="middle" x="250" y="-531.02" font-family="Times,serif" font-size="14.00" fill="#000000">captain_signals_if_court_orders</text>
<text text-anchor="middle" x="250" y="-516.02" font-family="Times,serif" font-size="14.00" fill="#000000">True</text>
</a>
</g>
</g>
<!-- node_5&#45;&gt;node_1 -->
<g id="edge2" class="edge">
<title>node_5&#45;&gt;node_1</title>
<path fill="none" stroke="black" d="M250,-507.93C250,-496.52 250,-481.43 250,-467.66"/>
<polygon fill="black" stroke="black" points="253.5,-467.48 250,-457.48 246.5,-467.48 253.5,-467.48"/>
<text text-anchor="middle" x="257.5" y="-479.02" font-family="Times,serif" font-size="14.00"> 1 </text>
</g>
<!-- node_8 -->
<g id="node_8" class="node">
<title>node_8</title>
<g id="a_node_8"><a xlink:title="prisoner_dies_if_rifleman_A_shoots">
<polygon fill="#ffffff" stroke="black" points="243.5,-158.74 28.5,-158.74 28.5,-120.74 243.5,-120.74 243.5,-158.74"/>
<text text-anchor="middle" x="136" y="-143.54" font-family="Times,serif" font-size="14.00" fill="#000000">prisoner_dies_if_rifleman_A_shoots</text>
<text text-anchor="middle" x="136" y="-128.54" font-family="Times,serif" font-size="14.00" fill="#000000">True</text>
</a>
</g>
</g>
<!-- node_2&#45;&gt;node_8 -->
<g id="edge7" class="edge">
<title>node_2&#45;&gt;node_8</title>
<path fill="none" stroke="black" d="M134.55,-209.69C134.81,-197.09 135.13,-181.91 135.4,-169.02"/>
<polygon fill="black" stroke="black" points="138.91,-168.89 135.62,-158.82 131.91,-168.75 138.91,-168.89"/>
<text text-anchor="middle" x="142.5" y="-180.54" font-family="Times,serif" font-size="14.00"> 1 </text>
</g>
<!-- node_0 -->
<g id="node_0" class="node">
<title>node_0</title>
<g id="a_node_0"><a xlink:title="Court = Order">
<ellipse fill="#ffffff" stroke="black" cx="250" cy="-624.09" rx="67.35" ry="26.74"/>
<text text-anchor="middle" x="250" y="-627.89" font-family="Times,serif" font-size="14.00" fill="#000000">Court = Order</text>
<text text-anchor="middle" x="250" y="-612.89" font-family="Times,serif" font-size="14.00" fill="#000000">{}</text>
</a>
</g>
</g>
<!-- node_0&#45;&gt;node_5 -->
<g id="edge1" class="edge">
<title>node_0&#45;&gt;node_5</title>
<path fill="none" stroke="black" d="M250,-597.17C250,-584.57 250,-569.4 250,-556.5"/>
<polygon fill="black" stroke="black" points="253.5,-556.3 250,-546.3 246.5,-556.3 253.5,-556.3"/>
<text text-anchor="middle" x="257.5" y="-568.02" font-family="Times,serif" font-size="14.00"> 1 </text>
</g>
<!-- node_8&#45;&gt;node_4 -->
<g id="edge8" class="edge">
<title>node_8&#45;&gt;node_4</title>
<path fill="none" stroke="black" d="M158.28,-120.67C174.53,-107.5 196.91,-89.35 215.84,-74"/>
<polygon fill="black" stroke="black" points="218.15,-76.63 223.72,-67.61 213.74,-71.19 218.15,-76.63"/>
<text text-anchor="middle" x="205.5" y="-91.54" font-family="Times,serif" font-size="14.00"> 1 </text>
</g>
</g>
</svg>
