<?xml version="1.0" encoding="UTF-8" standalone="no"?>
<!DOCTYPE svg PUBLIC "-//W3C//DTD SVG 1.1//EN"
 "http://www.w3.org/Graphics/SVG/1.1/DTD/svg11.dtd">
<!-- Generated by graphviz version 3.0.0 (20220226.1711)
 -->
<!-- Pages: 1 -->
<svg width="1196pt" height="869pt"
 viewBox="0.00 0.00 1196.00 868.70" xmlns="http://www.w3.org/2000/svg" xmlns:xlink="http://www.w3.org/1999/xlink">
<g id="graph0" class="graph" transform="scale(1 1) rotate(0) translate(4 864.7)">
<polygon fill="white" stroke="transparent" points="-4,4 -4,-864.7 1192,-864.7 1192,4 -4,4"/>
<g id="clust1" class="cluster">
<title>cluster_140579717648048</title>
</g>
<!-- node_19 -->
<g id="node_19" class="node">
<title>node_19</title>
<g id="a_node_19"><a xlink:title="prisoner_dies_if_rifleman_B_shoots">
<polygon fill="#ffffff" stroke="black" points="1165,-158.74 951,-158.74 951,-120.74 1165,-120.74 1165,-158.74"/>
<text text-anchor="middle" x="1058" y="-143.54" font-family="Times,serif" font-size="14.00" fill="#000000">prisoner_dies_if_rifleman_B_shoots</text>
<text text-anchor="middle" x="1058" y="-128.54" font-family="Times,serif" font-size="14.00" fill="#000000">True</text>
</a>
</g>
</g>
<!-- node_10 -->
<g id="node_10" class="node">
<title>node_10</title>
<g id="a_node_10"><a xlink:title="Prisoner = Dead">
<ellipse fill="#ffffff" stroke="black" cx="941" cy="-42.87" rx="74.91" ry="26.74"/>
<text text-anchor="middle" x="941" y="-46.67" font-family="Times,serif" font-size="14.00" fill="#000000">Prisoner = Dead</text>
<text text-anchor="middle" x="941" y="-31.67" font-family="Times,serif" font-size="14.00" fill="#000000">{}</text>
</a>
</g>
</g>
<!-- node_19&#45;&gt;node_10 -->
<g id="edge19" class="edge">
<title>node_19&#45;&gt;node_10</title>
<path fill="none" stroke="black" d="M1035.72,-120.67C1019.47,-107.5 997.09,-89.35 978.16,-74"/>
<polygon fill="black" stroke="black" points="980.26,-71.19 970.28,-67.61 975.85,-76.63 980.26,-71.19"/>
<text text-anchor="middle" x="1020.5" y="-91.54" font-family="Times,serif" font-size="14.00"> 1 </text>
</g>
<!-- node_6 -->
<g id="node_6" class="node">
<title>node_6</title>
<g id="a_node_6"><a xlink:title="RiflemanA = Shoot">
<ellipse fill="#ffffff" stroke="black" cx="822" cy="-236.61" rx="86.95" ry="26.74"/>
<text text-anchor="middle" x="822" y="-240.41" font-family="Times,serif" font-size="14.00" fill="#000000">RiflemanA = Shoot</text>
<text text-anchor="middle" x="822" y="-225.41" font-family="Times,serif" font-size="14.00" fill="#000000">{}</text>
</a>
</g>
</g>
<!-- node_18 -->
<g id="node_18" class="node">
<title>node_18</title>
<g id="a_node_18"><a xlink:title="prisoner_dies_if_rifleman_A_shoots">
<polygon fill="#ffffff" stroke="black" points="931.5,-158.74 716.5,-158.74 716.5,-120.74 931.5,-120.74 931.5,-158.74"/>
<text text-anchor="middle" x="824" y="-143.54" font-family="Times,serif" font-size="14.00" fill="#000000">prisoner_dies_if_rifleman_A_shoots</text>
<text text-anchor="middle" x="824" y="-128.54" font-family="Times,serif" font-size="14.00" fill="#000000">True</text>
</a>
</g>
</g>
<!-- node_6&#45;&gt;node_18 -->
<g id="edge16" class="edge">
<title>node_6&#45;&gt;node_18</title>
<path fill="none" stroke="black" d="M822.55,-209.69C822.81,-197.09 823.13,-181.91 823.4,-169.02"/>
<polygon fill="black" stroke="black" points="826.91,-168.89 823.62,-158.82 819.91,-168.75 826.91,-168.89"/>
<text text-anchor="middle" x="830.5" y="-180.54" font-family="Times,serif" font-size="14.00"> 1 </text>
</g>
<!-- node_18&#45;&gt;node_10 -->
<g id="edge17" class="edge">
<title>node_18&#45;&gt;node_10</title>
<path fill="none" stroke="black" d="M846.28,-120.67C862.53,-107.5 884.91,-89.35 903.84,-74"/>
<polygon fill="black" stroke="black" points="906.15,-76.63 911.72,-67.61 901.74,-71.19 906.15,-76.63"/>
<text text-anchor="middle" x="893.5" y="-91.54" font-family="Times,serif" font-size="14.00"> 1 </text>
</g>
<!-- node_3 -->
<g id="node_3" class="node">
<title>node_3</title>
<g id="a_node_3"><a xlink:title="Captain = Signal">
<ellipse fill="#ffffff" stroke="black" cx="817" cy="-430.35" rx="77.15" ry="26.74"/>
<text text-anchor="middle" x="817" y="-434.15" font-family="Times,serif" font-size="14.00" fill="#000000">Captain = Signal</text>
<text text-anchor="middle" x="817" y="-419.15" font-family="Times,serif" font-size="14.00" fill="#000000">{}</text>
</a>
</g>
</g>
<!-- node_14 -->
<g id="node_14" class="node">
<title>node_14</title>
<g id="a_node_14"><a xlink:title="rifleman_A_shoots_if_captain_signals">
<polygon fill="#ffffff" stroke="black" points="929.5,-352.48 704.5,-352.48 704.5,-314.48 929.5,-314.48 929.5,-352.48"/>
<text text-anchor="middle" x="817" y="-337.28" font-family="Times,serif" font-size="14.00" fill="#000000">rifleman_A_shoots_if_captain_signals</text>
<text text-anchor="middle" x="817" y="-322.28" font-family="Times,serif" font-size="14.00" fill="#000000">True</text>
</a>
</g>
</g>
<!-- node_3&#45;&gt;node_14 -->
<g id="edge8" class="edge">
<title>node_3&#45;&gt;node_14</title>
<path fill="none" stroke="black" d="M817,-403.43C817,-390.83 817,-375.65 817,-362.76"/>
<polygon fill="black" stroke="black" points="820.5,-362.56 817,-352.56 813.5,-362.56 820.5,-362.56"/>
<text text-anchor="middle" x="824.5" y="-374.28" font-family="Times,serif" font-size="14.00"> 1 </text>
</g>
<!-- node_16 -->
<g id="node_16" class="node">
<title>node_16</title>
<g id="a_node_16"><a xlink:title="rifleman_B_shoots_if_captain_signals">
<polygon fill="#ffffff" stroke="black" points="1172,-352.48 948,-352.48 948,-314.48 1172,-314.48 1172,-352.48"/>
<text text-anchor="middle" x="1060" y="-337.28" font-family="Times,serif" font-size="14.00" fill="#000000">rifleman_B_shoots_if_captain_signals</text>
<text text-anchor="middle" x="1060" y="-322.28" font-family="Times,serif" font-size="14.00" fill="#000000">True</text>
</a>
</g>
</g>
<!-- node_3&#45;&gt;node_16 -->
<g id="edge12" class="edge">
<title>node_3&#45;&gt;node_16</title>
<path fill="none" stroke="black" d="M867.06,-409.81C907.01,-394.21 962.96,-372.37 1004.32,-356.22"/>
<polygon fill="black" stroke="black" points="1005.67,-359.45 1013.71,-352.55 1003.12,-352.93 1005.67,-359.45"/>
<text text-anchor="middle" x="974.5" y="-374.28" font-family="Times,serif" font-size="14.00"> 1 </text>
</g>
<!-- node_9 -->
<g id="node_9" class="node">
<title>node_9</title>
<g id="a_node_9"><a xlink:title="Prisoner = Alive">
<ellipse fill="#ffffff" stroke="black" cx="314" cy="-42.87" rx="75.82" ry="26.74"/>
<text text-anchor="middle" x="314" y="-46.67" font-family="Times,serif" font-size="14.00" fill="#000000">Prisoner = Alive</text>
<text text-anchor="middle" x="314" y="-31.67" font-family="Times,serif" font-size="14.00" fill="#000000">{}</text>
</a>
</g>
</g>
<!-- node_14&#45;&gt;node_6 -->
<g id="edge9" class="edge">
<title>node_14&#45;&gt;node_6</title>
<path fill="none" stroke="black" d="M817.96,-314.19C818.57,-302.78 819.36,-287.69 820.09,-273.92"/>
<polygon fill="black" stroke="black" points="823.59,-273.91 820.62,-263.74 816.6,-273.54 823.59,-273.91"/>
<text text-anchor="middle" x="826.5" y="-285.28" font-family="Times,serif" font-size="14.00"> 1 </text>
</g>
<!-- node_20 -->
<g id="node_20" class="node">
<title>node_20</title>
<g id="a_node_20"><a xlink:title="prisoner_lives_if_riflemen_A_and_B_do_not_shoot">
<polygon fill="#ffffff" stroke="black" points="463.5,-158.74 164.5,-158.74 164.5,-120.74 463.5,-120.74 463.5,-158.74"/>
<text text-anchor="middle" x="314" y="-143.54" font-family="Times,serif" font-size="14.00" fill="#000000">prisoner_lives_if_riflemen_A_and_B_do_not_shoot</text>
<text text-anchor="middle" x="314" y="-128.54" font-family="Times,serif" font-size="14.00" fill="#000000">True</text>
</a>
</g>
</g>
<!-- node_20&#45;&gt;node_9 -->
<g id="edge22" class="edge">
<title>node_20&#45;&gt;node_9</title>
<path fill="none" stroke="black" d="M314,-120.45C314,-109.03 314,-93.95 314,-80.18"/>
<polygon fill="black" stroke="black" points="317.5,-80 314,-70 310.5,-80 317.5,-80"/>
<text text-anchor="middle" x="321.5" y="-91.54" font-family="Times,serif" font-size="14.00"> 1 </text>
</g>
<!-- node_12 -->
<g id="node_12" class="node">
<title>node_12</title>
<g id="a_node_12"><a xlink:title="captain_signals_if_court_orders">
<polygon fill="#ffffff" stroke="black" points="894,-546.22 704,-546.22 704,-508.22 894,-508.22 894,-546.22"/>
<text text-anchor="middle" x="799" y="-531.02" font-family="Times,serif" font-size="14.00" fill="#000000">captain_signals_if_court_orders</text>
<text text-anchor="middle" x="799" y="-516.02" font-family="Times,serif" font-size="14.00" fill="#000000">True</text>
</a>
</g>
</g>
<!-- node_12&#45;&gt;node_3 -->
<g id="edge5" class="edge">
<title>node_12&#45;&gt;node_3</title>
<path fill="none" stroke="black" d="M802.47,-507.93C804.64,-496.52 807.5,-481.43 810.11,-467.66"/>
<polygon fill="black" stroke="black" points="813.62,-467.96 812.04,-457.48 806.74,-466.65 813.62,-467.96"/>
<text text-anchor="middle" x="815.5" y="-479.02" font-family="Times,serif" font-size="14.00"> 1 </text>
</g>
<!-- node_17 -->
<g id="node_17" class="node">
<title>node_17</title>
<g id="a_node_17"><a xlink:title="rifleman_B_does_not_shoot_if_captain_does_not_signal">
<polygon fill="#ffffff" stroke="black" points="341.5,-352.48 16.5,-352.48 16.5,-314.48 341.5,-314.48 341.5,-352.48"/>
<text text-anchor="middle" x="179" y="-337.28" font-family="Times,serif" font-size="14.00" fill="#000000">rifleman_B_does_not_shoot_if_captain_does_not_signal</text>
<text text-anchor="middle" x="179" y="-322.28" font-family="Times,serif" font-size="14.00" fill="#000000">True</text>
</a>
</g>
</g>
<!-- node_7 -->
<g id="node_7" class="node">
<title>node_7</title>
<g id="a_node_7"><a xlink:title="RiflemanB = NoShoot">
<ellipse fill="#ffffff" stroke="black" cx="195" cy="-236.61" rx="98.99" ry="26.74"/>
<text text-anchor="middle" x="195" y="-240.41" font-family="Times,serif" font-size="14.00" fill="#000000">RiflemanB = NoShoot</text>
<text text-anchor="middle" x="195" y="-225.41" font-family="Times,serif" font-size="14.00" fill="#000000">{}</text>
</a>
</g>
</g>
<!-- node_17&#45;&gt;node_7 -->
<g id="edge15" class="edge">
<title>node_17&#45;&gt;node_7</title>
<path fill="none" stroke="black" d="M182.08,-314.19C184.01,-302.78 186.55,-287.69 188.88,-273.92"/>
<polygon fill="black" stroke="black" points="192.38,-274.18 190.59,-263.74 185.48,-273.02 192.38,-274.18"/>
<text text-anchor="middle" x="194.5" y="-285.28" font-family="Times,serif" font-size="14.00"> 1 </text>
</g>
<!-- node_15 -->
<g id="node_15" class="node">
<title>node_15</title>
<g id="a_node_15"><a xlink:title="rifleman_A_does_not_shoot_if_captain_does_not_signal">
<polygon fill="#ffffff" stroke="black" points="686,-352.48 360,-352.48 360,-314.48 686,-314.48 686,-352.48"/>
<text text-anchor="middle" x="523" y="-337.28" font-family="Times,serif" font-size="14.00" fill="#000000">rifleman_A_does_not_shoot_if_captain_does_not_signal</text>
<text text-anchor="middle" x="523" y="-322.28" font-family="Times,serif" font-size="14.00" fill="#000000">True</text>
</a>
</g>
</g>
<!-- node_5 -->
<g id="node_5" class="node">
<title>node_5</title>
<g id="a_node_5"><a xlink:title="RiflemanA = NoShoot">
<ellipse fill="#ffffff" stroke="black" cx="443" cy="-236.61" rx="98.99" ry="26.74"/>
<text text-anchor="middle" x="443" y="-240.41" font-family="Times,serif" font-size="14.00" fill="#000000">RiflemanA = NoShoot</text>
<text text-anchor="middle" x="443" y="-225.41" font-family="Times,serif" font-size="14.00" fill="#000000">{}</text>
</a>
</g>
</g>
<!-- node_15&#45;&gt;node_5 -->
<g id="edge11" class="edge">
<title>node_15&#45;&gt;node_5</title>
<path fill="none" stroke="black" d="M507.58,-314.19C497.23,-301.92 483.31,-285.41 471.04,-270.86"/>
<polygon fill="black" stroke="black" points="473.55,-268.41 464.43,-263.02 468.2,-272.92 473.55,-268.41"/>
<text text-anchor="middle" x="499.5" y="-285.28" font-family="Times,serif" font-size="14.00"> 1 </text>
</g>
<!-- node_8 -->
<g id="node_8" class="node">
<title>node_8</title>
<g id="a_node_8"><a xlink:title="RiflemanB = Shoot">
<ellipse fill="#ffffff" stroke="black" cx="1059" cy="-236.61" rx="86.95" ry="26.74"/>
<text text-anchor="middle" x="1059" y="-240.41" font-family="Times,serif" font-size="14.00" fill="#000000">RiflemanB = Shoot</text>
<text text-anchor="middle" x="1059" y="-225.41" font-family="Times,serif" font-size="14.00" fill="#000000">{}</text>
</a>
</g>
</g>
<!-- node_8&#45;&gt;node_19 -->
<g id="edge18" class="edge">
<title>node_8&#45;&gt;node_19</title>
<path fill="none" stroke="black" d="M1058.73,-209.69C1058.59,-197.09 1058.43,-181.91 1058.3,-169.02"/>
<polygon fill="black" stroke="black" points="1061.8,-168.78 1058.19,-158.82 1054.8,-168.86 1061.8,-168.78"/>
<text text-anchor="middle" x="1065.5" y="-180.54" font-family="Times,serif" font-size="14.00"> 1 </text>
</g>
<!-- node_11 -->
<g id="node_11" class="node">
<title>node_11</title>
<g id="a_node_11"><a xlink:title="court_decision_is_unknown">
<polygon fill="#ffffff" stroke="black" points="766.5,-739.96 597.5,-739.96 597.5,-701.96 766.5,-701.96 766.5,-739.96"/>
<text text-anchor="middle" x="682" y="-724.76" font-family="Times,serif" font-size="14.00" fill="#000000">court_decision_is_unknown</text>
<text text-anchor="middle" x="682" y="-709.76" font-family="Times,serif" font-size="14.00" fill="#000000">True</text>
</a>
</g>
</g>
<!-- node_1 -->
<g id="node_1" class="node">
<title>node_1</title>
<g id="a_node_1"><a xlink:title="Court = NoOrder">
<ellipse fill="#ffffff" stroke="black" cx="568" cy="-624.09" rx="78.48" ry="26.74"/>
<text text-anchor="middle" x="568" y="-627.89" font-family="Times,serif" font-size="14.00" fill="#000000">Court = NoOrder</text>
<text text-anchor="middle" x="568" y="-612.89" font-family="Times,serif" font-size="14.00" fill="#000000">{}</text>
</a>
</g>
</g>
<!-- node_11&#45;&gt;node_1 -->
<g id="edge2" class="edge">
<title>node_11&#45;&gt;node_1</title>
<path fill="none" stroke="black" d="M660.29,-701.89C644.72,-688.93 623.35,-671.15 605.09,-655.96"/>
<polygon fill="black" stroke="black" points="606.88,-652.89 596.96,-649.19 602.4,-658.28 606.88,-652.89"/>
<text text-anchor="middle" x="650.5" y="-672.76" font-family="Times,serif" font-size="14.00"> 0.5 </text>
</g>
<!-- node_2 -->
<g id="node_2" class="node">
<title>node_2</title>
<g id="a_node_2"><a xlink:title="Court = Order">
<ellipse fill="#ffffff" stroke="black" cx="797" cy="-624.09" rx="67.35" ry="26.74"/>
<text text-anchor="middle" x="797" y="-627.89" font-family="Times,serif" font-size="14.00" fill="#000000">Court = Order</text>
<text text-anchor="middle" x="797" y="-612.89" font-family="Times,serif" font-size="14.00" fill="#000000">{}</text>
</a>
</g>
</g>
<!-- node_11&#45;&gt;node_2 -->
<g id="edge3" class="edge">
<title>node_11&#45;&gt;node_2</title>
<path fill="none" stroke="black" d="M703.9,-701.89C719.98,-688.63 742.19,-670.31 760.88,-654.89"/>
<polygon fill="black" stroke="black" points="763.16,-657.55 768.64,-648.48 758.7,-652.15 763.16,-657.55"/>
<text text-anchor="middle" x="754.5" y="-672.76" font-family="Times,serif" font-size="14.00"> 0.5 </text>
</g>
<!-- node_16&#45;&gt;node_8 -->
<g id="edge13" class="edge">
<title>node_16&#45;&gt;node_8</title>
<path fill="none" stroke="black" d="M1059.81,-314.19C1059.69,-302.78 1059.53,-287.69 1059.38,-273.92"/>
<polygon fill="black" stroke="black" points="1062.88,-273.7 1059.28,-263.74 1055.88,-273.77 1062.88,-273.7"/>
<text text-anchor="middle" x="1066.5" y="-285.28" font-family="Times,serif" font-size="14.00"> 1 </text>
</g>
<!-- node_4 -->
<g id="node_4" class="node">
<title>node_4</title>
<g id="a_node_4"><a xlink:title="Captain = NoSignal">
<ellipse fill="#ffffff" stroke="black" cx="523" cy="-430.35" rx="88.28" ry="26.74"/>
<text text-anchor="middle" x="523" y="-434.15" font-family="Times,serif" font-size="14.00" fill="#000000">Captain = NoSignal</text>
<text text-anchor="middle" x="523" y="-419.15" font-family="Times,serif" font-size="14.00" fill="#000000">{}</text>
</a>
</g>
</g>
<!-- node_4&#45;&gt;node_17 -->
<g id="edge14" class="edge">
<title>node_4&#45;&gt;node_17</title>
<path fill="none" stroke="black" d="M459.1,-411.73C401.13,-395.74 315.59,-372.15 254.31,-355.25"/>
<polygon fill="black" stroke="black" points="254.88,-351.78 244.31,-352.49 253.02,-358.52 254.88,-351.78"/>
<text text-anchor="middle" x="368.5" y="-374.28" font-family="Times,serif" font-size="14.00"> 1 </text>
</g>
<!-- node_4&#45;&gt;node_15 -->
<g id="edge10" class="edge">
<title>node_4&#45;&gt;node_15</title>
<path fill="none" stroke="black" d="M523,-403.43C523,-390.83 523,-375.65 523,-362.76"/>
<polygon fill="black" stroke="black" points="526.5,-362.56 523,-352.56 519.5,-362.56 526.5,-362.56"/>
<text text-anchor="middle" x="530.5" y="-374.28" font-family="Times,serif" font-size="14.00"> 1 </text>
</g>
<!-- node_13 -->
<g id="node_13" class="node">
<title>node_13</title>
<g id="a_node_13"><a xlink:title="captain_does_not_signal_if_court_does_not_order">
<polygon fill="#ffffff" stroke="black" points="680,-546.22 390,-546.22 390,-508.22 680,-508.22 680,-546.22"/>
<text text-anchor="middle" x="535" y="-531.02" font-family="Times,serif" font-size="14.00" fill="#000000">captain_does_not_signal_if_court_does_not_order</text>
<text text-anchor="middle" x="535" y="-516.02" font-family="Times,serif" font-size="14.00" fill="#000000">True</text>
</a>
</g>
</g>
<!-- node_1&#45;&gt;node_13 -->
<g id="edge6" class="edge">
<title>node_1&#45;&gt;node_13</title>
<path fill="none" stroke="black" d="M558.98,-597.17C554.56,-584.44 549.22,-569.09 544.7,-556.11"/>
<polygon fill="black" stroke="black" points="547.88,-554.6 541.29,-546.3 541.27,-556.9 547.88,-554.6"/>
<text text-anchor="middle" x="559.5" y="-568.02" font-family="Times,serif" font-size="14.00"> 1 </text>
</g>
<!-- node_7&#45;&gt;node_20 -->
<g id="edge21" class="edge">
<title>node_7&#45;&gt;node_20</title>
<path fill="none" stroke="black" d="M225.96,-210.93C243.47,-196.97 265.32,-179.55 282.86,-165.56"/>
<polygon fill="black" stroke="black" points="285.46,-167.97 291.1,-159 281.09,-162.5 285.46,-167.97"/>
<text text-anchor="middle" x="275.5" y="-180.54" font-family="Times,serif" font-size="14.00"> 1 </text>
</g>
<!-- node_5&#45;&gt;node_20 -->
<g id="edge20" class="edge">
<title>node_5&#45;&gt;node_20</title>
<path fill="none" stroke="black" d="M409.78,-211.18C390.4,-196.93 366.05,-179.02 346.75,-164.83"/>
<polygon fill="black" stroke="black" points="348.68,-161.9 338.55,-158.8 344.53,-167.54 348.68,-161.9"/>
<text text-anchor="middle" x="389.5" y="-180.54" font-family="Times,serif" font-size="14.00"> 1 </text>
</g>
<!-- node_13&#45;&gt;node_4 -->
<g id="edge7" class="edge">
<title>node_13&#45;&gt;node_4</title>
<path fill="none" stroke="black" d="M532.69,-507.93C531.24,-496.52 529.33,-481.43 527.59,-467.66"/>
<polygon fill="black" stroke="black" points="531.03,-466.96 526.3,-457.48 524.09,-467.84 531.03,-466.96"/>
<text text-anchor="middle" x="537.5" y="-479.02" font-family="Times,serif" font-size="14.00"> 1 </text>
</g>
<!-- node_2&#45;&gt;node_12 -->
<g id="edge4" class="edge">
<title>node_2&#45;&gt;node_12</title>
<path fill="none" stroke="black" d="M797.55,-597.17C797.81,-584.57 798.13,-569.4 798.4,-556.5"/>
<polygon fill="black" stroke="black" points="801.91,-556.37 798.62,-546.3 794.91,-556.23 801.91,-556.37"/>
<text text-anchor="middle" x="805.5" y="-568.02" font-family="Times,serif" font-size="14.00"> 1 </text>
</g>
<!-- node_0 -->
<g id="node_0" class="node">
<title>node_0</title>
<g id="a_node_0"><a xlink:title="Init">
<ellipse fill="#ffffff" stroke="black" cx="682" cy="-817.83" rx="27" ry="26.74"/>
<text text-anchor="middle" x="682" y="-821.63" font-family="Times,serif" font-size="14.00" fill="#000000">Init</text>
<text text-anchor="middle" x="682" y="-806.63" font-family="Times,serif" font-size="14.00" fill="#000000">{}</text>
</a>
</g>
</g>
<!-- node_0&#45;&gt;node_11 -->
<g id="edge1" class="edge">
<title>node_0&#45;&gt;node_11</title>
<path fill="none" stroke="black" d="M682,-790.91C682,-778.31 682,-763.14 682,-750.24"/>
<polygon fill="black" stroke="black" points="685.5,-750.04 682,-740.04 678.5,-750.04 685.5,-750.04"/>
<text text-anchor="middle" x="689.5" y="-761.76" font-family="Times,serif" font-size="14.00"> 1 </text>
</g>
</g>
</svg>
