<?xml version="1.0" encoding="UTF-8" standalone="no"?>
<!DOCTYPE svg PUBLIC "-//W3C//DTD SVG 1.1//EN"
 "http://www.w3.org/Graphics/SVG/1.1/DTD/svg11.dtd">
<!-- Generated by graphviz version 2.47.3 (20210619.1520)
 -->
<!-- Pages: 1 -->
<svg width="1229pt" height="869pt"
 viewBox="0.00 0.00 1229.00 868.70" xmlns="http://www.w3.org/2000/svg" xmlns:xlink="http://www.w3.org/1999/xlink">
<g id="graph0" class="graph" transform="scale(1 1) rotate(0) translate(4 864.7)">
<polygon fill="white" stroke="transparent" points="-4,4 -4,-864.7 1225,-864.7 1225,4 -4,4"/>
<g id="clust1" class="cluster">
<title>cluster_140671877824624</title>
</g>
<!-- node_20 -->
<g id="node_20" class="node">
<title>node_20</title>
<g id="a_node_20"><a xlink:title="prisoner_lives_if_riflemen_A_and_B_do_not_shoot">
<polygon fill="#ffffff" stroke="black" points="1038.5,-158.74 729.5,-158.74 729.5,-120.74 1038.5,-120.74 1038.5,-158.74"/>
<text text-anchor="middle" x="884" y="-143.54" font-family="Times,serif" font-size="14.00" fill="#000000">prisoner_lives_if_riflemen_A_and_B_do_not_shoot</text>
<text text-anchor="middle" x="884" y="-128.54" font-family="Times,serif" font-size="14.00" fill="#000000">True</text>
</a>
</g>
</g>
<!-- node_9 -->
<g id="node_9" class="node">
<title>node_9</title>
<g id="a_node_9"><a xlink:title="Prisoner = Alive">
<ellipse fill="#ffffff" stroke="black" cx="884" cy="-42.87" rx="76.24" ry="26.74"/>
<text text-anchor="middle" x="884" y="-46.67" font-family="Times,serif" font-size="14.00" fill="#000000">Prisoner = Alive</text>
<text text-anchor="middle" x="884" y="-31.67" font-family="Times,serif" font-size="14.00" fill="#000000">{}</text>
</a>
</g>
</g>
<!-- node_20&#45;&gt;node_9 -->
<g id="edge22" class="edge">
<title>node_20&#45;&gt;node_9</title>
<path fill="none" stroke="black" d="M884,-120.45C884,-109.03 884,-93.95 884,-80.18"/>
<polygon fill="black" stroke="black" points="887.5,-80 884,-70 880.5,-80 887.5,-80"/>
<text text-anchor="middle" x="891" y="-91.54" font-family="Times,serif" font-size="14.00"> 1 </text>
</g>
<!-- node_12 -->
<g id="node_12" class="node">
<title>node_12</title>
<g id="a_node_12"><a xlink:title="captain_signals_if_court_orders">
<polygon fill="#ffffff" stroke="black" points="492,-546.22 296,-546.22 296,-508.22 492,-508.22 492,-546.22"/>
<text text-anchor="middle" x="394" y="-531.02" font-family="Times,serif" font-size="14.00" fill="#000000">captain_signals_if_court_orders</text>
<text text-anchor="middle" x="394" y="-516.02" font-family="Times,serif" font-size="14.00" fill="#000000">True</text>
</a>
</g>
</g>
<!-- node_3 -->
<g id="node_3" class="node">
<title>node_3</title>
<g id="a_node_3"><a xlink:title="Captain = Signal">
<ellipse fill="#ffffff" stroke="black" cx="382" cy="-430.35" rx="78.48" ry="26.74"/>
<text text-anchor="middle" x="382" y="-434.15" font-family="Times,serif" font-size="14.00" fill="#000000">Captain = Signal</text>
<text text-anchor="middle" x="382" y="-419.15" font-family="Times,serif" font-size="14.00" fill="#000000">{}</text>
</a>
</g>
</g>
<!-- node_12&#45;&gt;node_3 -->
<g id="edge5" class="edge">
<title>node_12&#45;&gt;node_3</title>
<path fill="none" stroke="black" d="M391.69,-507.93C390.24,-496.52 388.33,-481.43 386.59,-467.66"/>
<polygon fill="black" stroke="black" points="390.03,-466.96 385.3,-457.48 383.09,-467.84 390.03,-466.96"/>
<text text-anchor="middle" x="396" y="-479.02" font-family="Times,serif" font-size="14.00"> 1 </text>
</g>
<!-- node_18 -->
<g id="node_18" class="node">
<title>node_18</title>
<g id="a_node_18"><a xlink:title="prisoner_dies_if_rifleman_A_shoots">
<polygon fill="#ffffff" stroke="black" points="246.5,-158.74 25.5,-158.74 25.5,-120.74 246.5,-120.74 246.5,-158.74"/>
<text text-anchor="middle" x="136" y="-143.54" font-family="Times,serif" font-size="14.00" fill="#000000">prisoner_dies_if_rifleman_A_shoots</text>
<text text-anchor="middle" x="136" y="-128.54" font-family="Times,serif" font-size="14.00" fill="#000000">True</text>
</a>
</g>
</g>
<!-- node_10 -->
<g id="node_10" class="node">
<title>node_10</title>
<g id="a_node_10"><a xlink:title="Prisoner = Dead">
<ellipse fill="#ffffff" stroke="black" cx="240" cy="-42.87" rx="76.24" ry="26.74"/>
<text text-anchor="middle" x="240" y="-46.67" font-family="Times,serif" font-size="14.00" fill="#000000">Prisoner = Dead</text>
<text text-anchor="middle" x="240" y="-31.67" font-family="Times,serif" font-size="14.00" fill="#000000">{}</text>
</a>
</g>
</g>
<!-- node_18&#45;&gt;node_10 -->
<g id="edge17" class="edge">
<title>node_18&#45;&gt;node_10</title>
<path fill="none" stroke="black" d="M156.05,-120.45C170.05,-107.68 189.1,-90.3 205.51,-75.33"/>
<polygon fill="black" stroke="black" points="208.29,-77.53 213.32,-68.21 203.57,-72.36 208.29,-77.53"/>
<text text-anchor="middle" x="198" y="-91.54" font-family="Times,serif" font-size="14.00"> 1 </text>
</g>
<!-- node_2 -->
<g id="node_2" class="node">
<title>node_2</title>
<g id="a_node_2"><a xlink:title="Court = Order">
<ellipse fill="#ffffff" stroke="black" cx="429" cy="-624.09" rx="67.76" ry="26.74"/>
<text text-anchor="middle" x="429" y="-627.89" font-family="Times,serif" font-size="14.00" fill="#000000">Court = Order</text>
<text text-anchor="middle" x="429" y="-612.89" font-family="Times,serif" font-size="14.00" fill="#000000">{}</text>
</a>
</g>
</g>
<!-- node_2&#45;&gt;node_12 -->
<g id="edge4" class="edge">
<title>node_2&#45;&gt;node_12</title>
<path fill="none" stroke="black" d="M419.44,-597.17C414.69,-584.31 408.97,-568.79 404.15,-555.73"/>
<polygon fill="black" stroke="black" points="407.42,-554.47 400.67,-546.3 400.85,-556.9 407.42,-554.47"/>
<text text-anchor="middle" x="419" y="-568.02" font-family="Times,serif" font-size="14.00"> 1 </text>
</g>
<!-- node_11 -->
<g id="node_11" class="node">
<title>node_11</title>
<g id="a_node_11"><a xlink:title="court_decision_is_unknown">
<polygon fill="#ffffff" stroke="black" points="632,-739.96 458,-739.96 458,-701.96 632,-701.96 632,-739.96"/>
<text text-anchor="middle" x="545" y="-724.76" font-family="Times,serif" font-size="14.00" fill="#000000">court_decision_is_unknown</text>
<text text-anchor="middle" x="545" y="-709.76" font-family="Times,serif" font-size="14.00" fill="#000000">True</text>
</a>
</g>
</g>
<!-- node_11&#45;&gt;node_2 -->
<g id="edge3" class="edge">
<title>node_11&#45;&gt;node_2</title>
<path fill="none" stroke="black" d="M522.91,-701.89C506.69,-688.63 484.29,-670.31 465.44,-654.89"/>
<polygon fill="black" stroke="black" points="467.56,-652.1 457.6,-648.48 463.13,-657.52 467.56,-652.1"/>
<text text-anchor="middle" x="507" y="-672.76" font-family="Times,serif" font-size="14.00"> 0 </text>
</g>
<!-- node_1 -->
<g id="node_1" class="node">
<title>node_1</title>
<g id="a_node_1"><a xlink:title="Court = NoOrder">
<ellipse fill="#ffffff" stroke="black" cx="662" cy="-624.09" rx="79.81" ry="26.74"/>
<text text-anchor="middle" x="662" y="-627.89" font-family="Times,serif" font-size="14.00" fill="#000000">Court = NoOrder</text>
<text text-anchor="middle" x="662" y="-612.89" font-family="Times,serif" font-size="14.00" fill="#000000">{}</text>
</a>
</g>
</g>
<!-- node_11&#45;&gt;node_1 -->
<g id="edge2" class="edge">
<title>node_11&#45;&gt;node_1</title>
<path fill="none" stroke="black" d="M567.28,-701.89C583.41,-688.82 605.59,-670.83 624.44,-655.55"/>
<polygon fill="black" stroke="black" points="626.72,-658.21 632.28,-649.19 622.31,-652.77 626.72,-658.21"/>
<text text-anchor="middle" x="614" y="-672.76" font-family="Times,serif" font-size="14.00"> 1 </text>
</g>
<!-- node_4 -->
<g id="node_4" class="node">
<title>node_4</title>
<g id="a_node_4"><a xlink:title="Captain = NoSignal">
<ellipse fill="#ffffff" stroke="black" cx="683" cy="-430.35" rx="90.52" ry="26.74"/>
<text text-anchor="middle" x="683" y="-434.15" font-family="Times,serif" font-size="14.00" fill="#000000">Captain = NoSignal</text>
<text text-anchor="middle" x="683" y="-419.15" font-family="Times,serif" font-size="14.00" fill="#000000">{}</text>
</a>
</g>
</g>
<!-- node_17 -->
<g id="node_17" class="node">
<title>node_17</title>
<g id="a_node_17"><a xlink:title="rifleman_B_does_not_shoot_if_captain_does_not_signal">
<polygon fill="#ffffff" stroke="black" points="850.5,-352.48 515.5,-352.48 515.5,-314.48 850.5,-314.48 850.5,-352.48"/>
<text text-anchor="middle" x="683" y="-337.28" font-family="Times,serif" font-size="14.00" fill="#000000">rifleman_B_does_not_shoot_if_captain_does_not_signal</text>
<text text-anchor="middle" x="683" y="-322.28" font-family="Times,serif" font-size="14.00" fill="#000000">True</text>
</a>
</g>
</g>
<!-- node_4&#45;&gt;node_17 -->
<g id="edge14" class="edge">
<title>node_4&#45;&gt;node_17</title>
<path fill="none" stroke="black" d="M683,-403.43C683,-390.83 683,-375.65 683,-362.76"/>
<polygon fill="black" stroke="black" points="686.5,-362.56 683,-352.56 679.5,-362.56 686.5,-362.56"/>
<text text-anchor="middle" x="690" y="-374.28" font-family="Times,serif" font-size="14.00"> 1 </text>
</g>
<!-- node_15 -->
<g id="node_15" class="node">
<title>node_15</title>
<g id="a_node_15"><a xlink:title="rifleman_A_does_not_shoot_if_captain_does_not_signal">
<polygon fill="#ffffff" stroke="black" points="1205,-352.48 869,-352.48 869,-314.48 1205,-314.48 1205,-352.48"/>
<text text-anchor="middle" x="1037" y="-337.28" font-family="Times,serif" font-size="14.00" fill="#000000">rifleman_A_does_not_shoot_if_captain_does_not_signal</text>
<text text-anchor="middle" x="1037" y="-322.28" font-family="Times,serif" font-size="14.00" fill="#000000">True</text>
</a>
</g>
</g>
<!-- node_4&#45;&gt;node_15 -->
<g id="edge10" class="edge">
<title>node_4&#45;&gt;node_15</title>
<path fill="none" stroke="black" d="M748.76,-411.73C808.54,-395.71 896.8,-372.05 959.89,-355.14"/>
<polygon fill="black" stroke="black" points="961.04,-358.46 969.79,-352.49 959.23,-351.7 961.04,-358.46"/>
<text text-anchor="middle" x="909" y="-374.28" font-family="Times,serif" font-size="14.00"> 1 </text>
</g>
<!-- node_7 -->
<g id="node_7" class="node">
<title>node_7</title>
<g id="a_node_7"><a xlink:title="RiflemanB = NoShoot">
<ellipse fill="#ffffff" stroke="black" cx="758" cy="-236.61" rx="100.32" ry="26.74"/>
<text text-anchor="middle" x="758" y="-240.41" font-family="Times,serif" font-size="14.00" fill="#000000">RiflemanB = NoShoot</text>
<text text-anchor="middle" x="758" y="-225.41" font-family="Times,serif" font-size="14.00" fill="#000000">{}</text>
</a>
</g>
</g>
<!-- node_7&#45;&gt;node_20 -->
<g id="edge21" class="edge">
<title>node_7&#45;&gt;node_20</title>
<path fill="none" stroke="black" d="M790.45,-211.18C809.38,-196.93 833.16,-179.02 852.01,-164.83"/>
<polygon fill="black" stroke="black" points="854.14,-167.61 860.02,-158.8 849.93,-162.01 854.14,-167.61"/>
<text text-anchor="middle" x="842" y="-180.54" font-family="Times,serif" font-size="14.00"> 1 </text>
</g>
<!-- node_6 -->
<g id="node_6" class="node">
<title>node_6</title>
<g id="a_node_6"><a xlink:title="RiflemanA = Shoot">
<ellipse fill="#ffffff" stroke="black" cx="133" cy="-236.61" rx="88.28" ry="26.74"/>
<text text-anchor="middle" x="133" y="-240.41" font-family="Times,serif" font-size="14.00" fill="#000000">RiflemanA = Shoot</text>
<text text-anchor="middle" x="133" y="-225.41" font-family="Times,serif" font-size="14.00" fill="#000000">{}</text>
</a>
</g>
</g>
<!-- node_6&#45;&gt;node_18 -->
<g id="edge16" class="edge">
<title>node_6&#45;&gt;node_18</title>
<path fill="none" stroke="black" d="M133.82,-209.69C134.22,-197.09 134.7,-181.91 135.11,-169.02"/>
<polygon fill="black" stroke="black" points="138.61,-168.93 135.43,-158.82 131.61,-168.71 138.61,-168.93"/>
<text text-anchor="middle" x="141" y="-180.54" font-family="Times,serif" font-size="14.00"> 1 </text>
</g>
<!-- node_8 -->
<g id="node_8" class="node">
<title>node_8</title>
<g id="a_node_8"><a xlink:title="RiflemanB = Shoot">
<ellipse fill="#ffffff" stroke="black" cx="377" cy="-236.61" rx="88.28" ry="26.74"/>
<text text-anchor="middle" x="377" y="-240.41" font-family="Times,serif" font-size="14.00" fill="#000000">RiflemanB = Shoot</text>
<text text-anchor="middle" x="377" y="-225.41" font-family="Times,serif" font-size="14.00" fill="#000000">{}</text>
</a>
</g>
</g>
<!-- node_19 -->
<g id="node_19" class="node">
<title>node_19</title>
<g id="a_node_19"><a xlink:title="prisoner_dies_if_rifleman_B_shoots">
<polygon fill="#ffffff" stroke="black" points="486,-158.74 266,-158.74 266,-120.74 486,-120.74 486,-158.74"/>
<text text-anchor="middle" x="376" y="-143.54" font-family="Times,serif" font-size="14.00" fill="#000000">prisoner_dies_if_rifleman_B_shoots</text>
<text text-anchor="middle" x="376" y="-128.54" font-family="Times,serif" font-size="14.00" fill="#000000">True</text>
</a>
</g>
</g>
<!-- node_8&#45;&gt;node_19 -->
<g id="edge18" class="edge">
<title>node_8&#45;&gt;node_19</title>
<path fill="none" stroke="black" d="M376.73,-209.69C376.59,-197.09 376.43,-181.91 376.3,-169.02"/>
<polygon fill="black" stroke="black" points="379.8,-168.78 376.19,-158.82 372.8,-168.86 379.8,-168.78"/>
<text text-anchor="middle" x="383" y="-180.54" font-family="Times,serif" font-size="14.00"> 1 </text>
</g>
<!-- node_17&#45;&gt;node_7 -->
<g id="edge15" class="edge">
<title>node_17&#45;&gt;node_7</title>
<path fill="none" stroke="black" d="M697.46,-314.19C707.07,-302.04 719.97,-285.72 731.39,-271.27"/>
<polygon fill="black" stroke="black" points="734.46,-273.03 737.91,-263.02 728.97,-268.69 734.46,-273.03"/>
<text text-anchor="middle" x="729" y="-285.28" font-family="Times,serif" font-size="14.00"> 1 </text>
</g>
<!-- node_14 -->
<g id="node_14" class="node">
<title>node_14</title>
<g id="a_node_14"><a xlink:title="rifleman_A_shoots_if_captain_signals">
<polygon fill="#ffffff" stroke="black" points="248,-352.48 16,-352.48 16,-314.48 248,-314.48 248,-352.48"/>
<text text-anchor="middle" x="132" y="-337.28" font-family="Times,serif" font-size="14.00" fill="#000000">rifleman_A_shoots_if_captain_signals</text>
<text text-anchor="middle" x="132" y="-322.28" font-family="Times,serif" font-size="14.00" fill="#000000">True</text>
</a>
</g>
</g>
<!-- node_14&#45;&gt;node_6 -->
<g id="edge9" class="edge">
<title>node_14&#45;&gt;node_6</title>
<path fill="none" stroke="black" d="M132.19,-314.19C132.31,-302.78 132.47,-287.69 132.62,-273.92"/>
<polygon fill="black" stroke="black" points="136.12,-273.77 132.72,-263.74 129.12,-273.7 136.12,-273.77"/>
<text text-anchor="middle" x="139" y="-285.28" font-family="Times,serif" font-size="14.00"> 1 </text>
</g>
<!-- node_19&#45;&gt;node_10 -->
<g id="edge19" class="edge">
<title>node_19&#45;&gt;node_10</title>
<path fill="none" stroke="black" d="M350.1,-120.67C330.76,-107.18 303.93,-88.47 281.6,-72.89"/>
<polygon fill="black" stroke="black" points="283.49,-69.94 273.28,-67.09 279.48,-75.68 283.49,-69.94"/>
<text text-anchor="middle" x="331" y="-91.54" font-family="Times,serif" font-size="14.00"> 1 </text>
</g>
<!-- node_0 -->
<g id="node_0" class="node">
<title>node_0</title>
<g id="a_node_0"><a xlink:title="Init">
<ellipse fill="#ffffff" stroke="black" cx="545" cy="-817.83" rx="27" ry="26.74"/>
<text text-anchor="middle" x="545" y="-821.63" font-family="Times,serif" font-size="14.00" fill="#000000">Init</text>
<text text-anchor="middle" x="545" y="-806.63" font-family="Times,serif" font-size="14.00" fill="#000000">{}</text>
</a>
</g>
</g>
<!-- node_0&#45;&gt;node_11 -->
<g id="edge1" class="edge">
<title>node_0&#45;&gt;node_11</title>
<path fill="none" stroke="black" d="M545,-790.91C545,-778.31 545,-763.14 545,-750.24"/>
<polygon fill="black" stroke="black" points="548.5,-750.04 545,-740.04 541.5,-750.04 548.5,-750.04"/>
<text text-anchor="middle" x="552" y="-761.76" font-family="Times,serif" font-size="14.00"> 1 </text>
</g>
<!-- node_5 -->
<g id="node_5" class="node">
<title>node_5</title>
<g id="a_node_5"><a xlink:title="RiflemanA = NoShoot">
<ellipse fill="#ffffff" stroke="black" cx="1011" cy="-236.61" rx="100.32" ry="26.74"/>
<text text-anchor="middle" x="1011" y="-240.41" font-family="Times,serif" font-size="14.00" fill="#000000">RiflemanA = NoShoot</text>
<text text-anchor="middle" x="1011" y="-225.41" font-family="Times,serif" font-size="14.00" fill="#000000">{}</text>
</a>
</g>
</g>
<!-- node_15&#45;&gt;node_5 -->
<g id="edge11" class="edge">
<title>node_15&#45;&gt;node_5</title>
<path fill="none" stroke="black" d="M1031.99,-314.19C1028.83,-302.66 1024.64,-287.39 1020.84,-273.52"/>
<polygon fill="black" stroke="black" points="1024.18,-272.46 1018.16,-263.74 1017.43,-274.31 1024.18,-272.46"/>
<text text-anchor="middle" x="1034" y="-285.28" font-family="Times,serif" font-size="14.00"> 1 </text>
</g>
<!-- node_13 -->
<g id="node_13" class="node">
<title>node_13</title>
<g id="a_node_13"><a xlink:title="captain_does_not_signal_if_court_does_not_order">
<polygon fill="#ffffff" stroke="black" points="814,-546.22 514,-546.22 514,-508.22 814,-508.22 814,-546.22"/>
<text text-anchor="middle" x="664" y="-531.02" font-family="Times,serif" font-size="14.00" fill="#000000">captain_does_not_signal_if_court_does_not_order</text>
<text text-anchor="middle" x="664" y="-516.02" font-family="Times,serif" font-size="14.00" fill="#000000">True</text>
</a>
</g>
</g>
<!-- node_13&#45;&gt;node_4 -->
<g id="edge7" class="edge">
<title>node_13&#45;&gt;node_4</title>
<path fill="none" stroke="black" d="M667.66,-507.93C669.95,-496.52 672.97,-481.43 675.73,-467.66"/>
<polygon fill="black" stroke="black" points="679.24,-467.97 677.77,-457.48 672.37,-466.6 679.24,-467.97"/>
<text text-anchor="middle" x="681" y="-479.02" font-family="Times,serif" font-size="14.00"> 1 </text>
</g>
<!-- node_5&#45;&gt;node_20 -->
<g id="edge20" class="edge">
<title>node_5&#45;&gt;node_20</title>
<path fill="none" stroke="black" d="M978.29,-211.18C959.22,-196.93 935.24,-179.02 916.25,-164.83"/>
<polygon fill="black" stroke="black" points="918.28,-161.98 908.17,-158.8 914.09,-167.58 918.28,-161.98"/>
<text text-anchor="middle" x="958" y="-180.54" font-family="Times,serif" font-size="14.00"> 1 </text>
</g>
<!-- node_1&#45;&gt;node_13 -->
<g id="edge6" class="edge">
<title>node_1&#45;&gt;node_13</title>
<path fill="none" stroke="black" d="M662.55,-597.17C662.81,-584.57 663.13,-569.4 663.4,-556.5"/>
<polygon fill="black" stroke="black" points="666.91,-556.37 663.62,-546.3 659.91,-556.23 666.91,-556.37"/>
<text text-anchor="middle" x="670" y="-568.02" font-family="Times,serif" font-size="14.00"> 1 </text>
</g>
<!-- node_16 -->
<g id="node_16" class="node">
<title>node_16</title>
<g id="a_node_16"><a xlink:title="rifleman_B_shoots_if_captain_signals">
<polygon fill="#ffffff" stroke="black" points="497.5,-352.48 266.5,-352.48 266.5,-314.48 497.5,-314.48 497.5,-352.48"/>
<text text-anchor="middle" x="382" y="-337.28" font-family="Times,serif" font-size="14.00" fill="#000000">rifleman_B_shoots_if_captain_signals</text>
<text text-anchor="middle" x="382" y="-322.28" font-family="Times,serif" font-size="14.00" fill="#000000">True</text>
</a>
</g>
</g>
<!-- node_16&#45;&gt;node_8 -->
<g id="edge13" class="edge">
<title>node_16&#45;&gt;node_8</title>
<path fill="none" stroke="black" d="M381.04,-314.19C380.43,-302.78 379.64,-287.69 378.91,-273.92"/>
<polygon fill="black" stroke="black" points="382.4,-273.54 378.38,-263.74 375.41,-273.91 382.4,-273.54"/>
<text text-anchor="middle" x="387" y="-285.28" font-family="Times,serif" font-size="14.00"> 1 </text>
</g>
<!-- node_3&#45;&gt;node_14 -->
<g id="edge8" class="edge">
<title>node_3&#45;&gt;node_14</title>
<path fill="none" stroke="black" d="M330.81,-409.92C289.63,-394.3 231.82,-372.36 189.15,-356.17"/>
<polygon fill="black" stroke="black" points="190.33,-352.87 179.74,-352.6 187.85,-359.42 190.33,-352.87"/>
<text text-anchor="middle" x="271" y="-374.28" font-family="Times,serif" font-size="14.00"> 1 </text>
</g>
<!-- node_3&#45;&gt;node_16 -->
<g id="edge12" class="edge">
<title>node_3&#45;&gt;node_16</title>
<path fill="none" stroke="black" d="M382,-403.43C382,-390.83 382,-375.65 382,-362.76"/>
<polygon fill="black" stroke="black" points="385.5,-362.56 382,-352.56 378.5,-362.56 385.5,-362.56"/>
<text text-anchor="middle" x="389" y="-374.28" font-family="Times,serif" font-size="14.00"> 1 </text>
</g>
</g>
</svg>
