<?xml version="1.0" encoding="UTF-8" standalone="no"?>
<!DOCTYPE svg PUBLIC "-//W3C//DTD SVG 1.1//EN"
 "http://www.w3.org/Graphics/SVG/1.1/DTD/svg11.dtd">
<!-- Generated by graphviz version 3.0.0 (20220226.1711)
 -->
<!-- Pages: 1 -->
<svg width="1195pt" height="869pt"
 viewBox="0.00 0.00 1195.00 868.70" xmlns="http://www.w3.org/2000/svg" xmlns:xlink="http://www.w3.org/1999/xlink">
<g id="graph0" class="graph" transform="scale(1 1) rotate(0) translate(4 864.7)">
<polygon fill="white" stroke="transparent" points="-4,4 -4,-864.7 1191,-864.7 1191,4 -4,4"/>
<g id="clust1" class="cluster">
<title>cluster_140645602987696</title>
</g>
<!-- node_17 -->
<g id="node_17" class="node">
<title>node_17</title>
<g id="a_node_17"><a xlink:title="rifleman_B_does_not_shoot_if_captain_does_not_signal">
<polygon fill="#ffffff" stroke="black" points="826.5,-352.48 501.5,-352.48 501.5,-314.48 826.5,-314.48 826.5,-352.48"/>
<text text-anchor="middle" x="664" y="-337.28" font-family="Times,serif" font-size="14.00" fill="#000000">rifleman_B_does_not_shoot_if_captain_does_not_signal</text>
<text text-anchor="middle" x="664" y="-322.28" font-family="Times,serif" font-size="14.00" fill="#000000">True</text>
</a>
</g>
</g>
<!-- node_7 -->
<g id="node_7" class="node">
<title>node_7</title>
<g id="a_node_7"><a xlink:title="RiflemanB = NoShoot">
<ellipse fill="#ffffff" stroke="black" cx="736" cy="-236.61" rx="98.99" ry="26.74"/>
<text text-anchor="middle" x="736" y="-240.41" font-family="Times,serif" font-size="14.00" fill="#000000">RiflemanB = NoShoot</text>
<text text-anchor="middle" x="736" y="-225.41" font-family="Times,serif" font-size="14.00" fill="#000000">{}</text>
</a>
</g>
</g>
<!-- node_17&#45;&gt;node_7 -->
<g id="edge15" class="edge">
<title>node_17&#45;&gt;node_7</title>
<path fill="none" stroke="black" d="M677.88,-314.19C687.11,-302.04 699.49,-285.72 710.46,-271.27"/>
<polygon fill="black" stroke="black" points="713.46,-273.1 716.72,-263.02 707.88,-268.87 713.46,-273.1"/>
<text text-anchor="middle" x="709.5" y="-285.28" font-family="Times,serif" font-size="14.00"> 1 </text>
</g>
<!-- node_11 -->
<g id="node_11" class="node">
<title>node_11</title>
<g id="a_node_11"><a xlink:title="court_decision_is_unknown">
<polygon fill="#ffffff" stroke="black" points="614.5,-739.96 445.5,-739.96 445.5,-701.96 614.5,-701.96 614.5,-739.96"/>
<text text-anchor="middle" x="530" y="-724.76" font-family="Times,serif" font-size="14.00" fill="#000000">court_decision_is_unknown</text>
<text text-anchor="middle" x="530" y="-709.76" font-family="Times,serif" font-size="14.00" fill="#000000">True</text>
</a>
</g>
</g>
<!-- node_2 -->
<g id="node_2" class="node">
<title>node_2</title>
<g id="a_node_2"><a xlink:title="Court = Order">
<ellipse fill="#ffffff" stroke="black" cx="416" cy="-624.09" rx="67.35" ry="26.74"/>
<text text-anchor="middle" x="416" y="-627.89" font-family="Times,serif" font-size="14.00" fill="#000000">Court = Order</text>
<text text-anchor="middle" x="416" y="-612.89" font-family="Times,serif" font-size="14.00" fill="#000000">{}</text>
</a>
</g>
</g>
<!-- node_11&#45;&gt;node_2 -->
<g id="edge3" class="edge">
<title>node_11&#45;&gt;node_2</title>
<path fill="none" stroke="black" d="M508.29,-701.89C492.6,-688.84 471.04,-670.89 452.7,-655.63"/>
<polygon fill="black" stroke="black" points="454.46,-652.54 444.53,-648.84 449.98,-657.92 454.46,-652.54"/>
<text text-anchor="middle" x="498.5" y="-672.76" font-family="Times,serif" font-size="14.00"> 0.5 </text>
</g>
<!-- node_1 -->
<g id="node_1" class="node">
<title>node_1</title>
<g id="a_node_1"><a xlink:title="Court = NoOrder">
<ellipse fill="#ffffff" stroke="black" cx="644" cy="-624.09" rx="78.48" ry="26.74"/>
<text text-anchor="middle" x="644" y="-627.89" font-family="Times,serif" font-size="14.00" fill="#000000">Court = NoOrder</text>
<text text-anchor="middle" x="644" y="-612.89" font-family="Times,serif" font-size="14.00" fill="#000000">{}</text>
</a>
</g>
</g>
<!-- node_11&#45;&gt;node_1 -->
<g id="edge2" class="edge">
<title>node_11&#45;&gt;node_1</title>
<path fill="none" stroke="black" d="M551.71,-701.89C567.28,-688.93 588.65,-671.15 606.91,-655.96"/>
<polygon fill="black" stroke="black" points="609.6,-658.28 615.04,-649.19 605.12,-652.89 609.6,-658.28"/>
<text text-anchor="middle" x="602.5" y="-672.76" font-family="Times,serif" font-size="14.00"> 0.5 </text>
</g>
<!-- node_12 -->
<g id="node_12" class="node">
<title>node_12</title>
<g id="a_node_12"><a xlink:title="captain_signals_if_court_orders">
<polygon fill="#ffffff" stroke="black" points="478,-546.22 288,-546.22 288,-508.22 478,-508.22 478,-546.22"/>
<text text-anchor="middle" x="383" y="-531.02" font-family="Times,serif" font-size="14.00" fill="#000000">captain_signals_if_court_orders</text>
<text text-anchor="middle" x="383" y="-516.02" font-family="Times,serif" font-size="14.00" fill="#000000">True</text>
</a>
</g>
</g>
<!-- node_2&#45;&gt;node_12 -->
<g id="edge4" class="edge">
<title>node_2&#45;&gt;node_12</title>
<path fill="none" stroke="black" d="M406.98,-597.17C402.56,-584.44 397.22,-569.09 392.7,-556.11"/>
<polygon fill="black" stroke="black" points="395.88,-554.6 389.29,-546.3 389.27,-556.9 395.88,-554.6"/>
<text text-anchor="middle" x="407.5" y="-568.02" font-family="Times,serif" font-size="14.00"> 1 </text>
</g>
<!-- node_3 -->
<g id="node_3" class="node">
<title>node_3</title>
<g id="a_node_3"><a xlink:title="Captain = Signal">
<ellipse fill="#ffffff" stroke="black" cx="371" cy="-430.35" rx="77.15" ry="26.74"/>
<text text-anchor="middle" x="371" y="-434.15" font-family="Times,serif" font-size="14.00" fill="#000000">Captain = Signal</text>
<text text-anchor="middle" x="371" y="-419.15" font-family="Times,serif" font-size="14.00" fill="#000000">{}</text>
</a>
</g>
</g>
<!-- node_16 -->
<g id="node_16" class="node">
<title>node_16</title>
<g id="a_node_16"><a xlink:title="rifleman_B_shoots_if_captain_signals">
<polygon fill="#ffffff" stroke="black" points="240,-352.48 16,-352.48 16,-314.48 240,-314.48 240,-352.48"/>
<text text-anchor="middle" x="128" y="-337.28" font-family="Times,serif" font-size="14.00" fill="#000000">rifleman_B_shoots_if_captain_signals</text>
<text text-anchor="middle" x="128" y="-322.28" font-family="Times,serif" font-size="14.00" fill="#000000">True</text>
</a>
</g>
</g>
<!-- node_3&#45;&gt;node_16 -->
<g id="edge12" class="edge">
<title>node_3&#45;&gt;node_16</title>
<path fill="none" stroke="black" d="M320.94,-409.81C280.99,-394.21 225.04,-372.37 183.68,-356.22"/>
<polygon fill="black" stroke="black" points="184.88,-352.93 174.29,-352.55 182.33,-359.45 184.88,-352.93"/>
<text text-anchor="middle" x="263.5" y="-374.28" font-family="Times,serif" font-size="14.00"> 1 </text>
</g>
<!-- node_14 -->
<g id="node_14" class="node">
<title>node_14</title>
<g id="a_node_14"><a xlink:title="rifleman_A_shoots_if_captain_signals">
<polygon fill="#ffffff" stroke="black" points="483.5,-352.48 258.5,-352.48 258.5,-314.48 483.5,-314.48 483.5,-352.48"/>
<text text-anchor="middle" x="371" y="-337.28" font-family="Times,serif" font-size="14.00" fill="#000000">rifleman_A_shoots_if_captain_signals</text>
<text text-anchor="middle" x="371" y="-322.28" font-family="Times,serif" font-size="14.00" fill="#000000">True</text>
</a>
</g>
</g>
<!-- node_3&#45;&gt;node_14 -->
<g id="edge8" class="edge">
<title>node_3&#45;&gt;node_14</title>
<path fill="none" stroke="black" d="M371,-403.43C371,-390.83 371,-375.65 371,-362.76"/>
<polygon fill="black" stroke="black" points="374.5,-362.56 371,-352.56 367.5,-362.56 374.5,-362.56"/>
<text text-anchor="middle" x="378.5" y="-374.28" font-family="Times,serif" font-size="14.00"> 1 </text>
</g>
<!-- node_5 -->
<g id="node_5" class="node">
<title>node_5</title>
<g id="a_node_5"><a xlink:title="RiflemanA = NoShoot">
<ellipse fill="#ffffff" stroke="black" cx="984" cy="-236.61" rx="98.99" ry="26.74"/>
<text text-anchor="middle" x="984" y="-240.41" font-family="Times,serif" font-size="14.00" fill="#000000">RiflemanA = NoShoot</text>
<text text-anchor="middle" x="984" y="-225.41" font-family="Times,serif" font-size="14.00" fill="#000000">{}</text>
</a>
</g>
</g>
<!-- node_20 -->
<g id="node_20" class="node">
<title>node_20</title>
<g id="a_node_20"><a xlink:title="prisoner_lives_if_riflemen_A_and_B_do_not_shoot">
<polygon fill="#ffffff" stroke="black" points="1008.5,-158.74 709.5,-158.74 709.5,-120.74 1008.5,-120.74 1008.5,-158.74"/>
<text text-anchor="middle" x="859" y="-143.54" font-family="Times,serif" font-size="14.00" fill="#000000">prisoner_lives_if_riflemen_A_and_B_do_not_shoot</text>
<text text-anchor="middle" x="859" y="-128.54" font-family="Times,serif" font-size="14.00" fill="#000000">True</text>
</a>
</g>
</g>
<!-- node_5&#45;&gt;node_20 -->
<g id="edge20" class="edge">
<title>node_5&#45;&gt;node_20</title>
<path fill="none" stroke="black" d="M951.81,-211.18C933.12,-196.99 909.65,-179.18 890.99,-165.02"/>
<polygon fill="black" stroke="black" points="892.87,-162.05 882.79,-158.8 888.64,-167.63 892.87,-162.05"/>
<text text-anchor="middle" x="932.5" y="-180.54" font-family="Times,serif" font-size="14.00"> 1 </text>
</g>
<!-- node_13 -->
<g id="node_13" class="node">
<title>node_13</title>
<g id="a_node_13"><a xlink:title="captain_does_not_signal_if_court_does_not_order">
<polygon fill="#ffffff" stroke="black" points="791,-546.22 501,-546.22 501,-508.22 791,-508.22 791,-546.22"/>
<text text-anchor="middle" x="646" y="-531.02" font-family="Times,serif" font-size="14.00" fill="#000000">captain_does_not_signal_if_court_does_not_order</text>
<text text-anchor="middle" x="646" y="-516.02" font-family="Times,serif" font-size="14.00" fill="#000000">True</text>
</a>
</g>
</g>
<!-- node_4 -->
<g id="node_4" class="node">
<title>node_4</title>
<g id="a_node_4"><a xlink:title="Captain = NoSignal">
<ellipse fill="#ffffff" stroke="black" cx="664" cy="-430.35" rx="88.28" ry="26.74"/>
<text text-anchor="middle" x="664" y="-434.15" font-family="Times,serif" font-size="14.00" fill="#000000">Captain = NoSignal</text>
<text text-anchor="middle" x="664" y="-419.15" font-family="Times,serif" font-size="14.00" fill="#000000">{}</text>
</a>
</g>
</g>
<!-- node_13&#45;&gt;node_4 -->
<g id="edge7" class="edge">
<title>node_13&#45;&gt;node_4</title>
<path fill="none" stroke="black" d="M649.47,-507.93C651.64,-496.52 654.5,-481.43 657.11,-467.66"/>
<polygon fill="black" stroke="black" points="660.62,-467.96 659.04,-457.48 653.74,-466.65 660.62,-467.96"/>
<text text-anchor="middle" x="662.5" y="-479.02" font-family="Times,serif" font-size="14.00"> 1 </text>
</g>
<!-- node_7&#45;&gt;node_20 -->
<g id="edge21" class="edge">
<title>node_7&#45;&gt;node_20</title>
<path fill="none" stroke="black" d="M768,-210.93C786.27,-196.84 809.09,-179.23 827.31,-165.18"/>
<polygon fill="black" stroke="black" points="829.54,-167.88 835.33,-159 825.27,-162.34 829.54,-167.88"/>
<text text-anchor="middle" x="819.5" y="-180.54" font-family="Times,serif" font-size="14.00"> 1 </text>
</g>
<!-- node_8 -->
<g id="node_8" class="node">
<title>node_8</title>
<g id="a_node_8"><a xlink:title="RiflemanB = Shoot">
<ellipse fill="#ffffff" stroke="black" cx="129" cy="-236.61" rx="86.95" ry="26.74"/>
<text text-anchor="middle" x="129" y="-240.41" font-family="Times,serif" font-size="14.00" fill="#000000">RiflemanB = Shoot</text>
<text text-anchor="middle" x="129" y="-225.41" font-family="Times,serif" font-size="14.00" fill="#000000">{}</text>
</a>
</g>
</g>
<!-- node_16&#45;&gt;node_8 -->
<g id="edge13" class="edge">
<title>node_16&#45;&gt;node_8</title>
<path fill="none" stroke="black" d="M128.19,-314.19C128.31,-302.78 128.47,-287.69 128.62,-273.92"/>
<polygon fill="black" stroke="black" points="132.12,-273.77 128.72,-263.74 125.12,-273.7 132.12,-273.77"/>
<text text-anchor="middle" x="135.5" y="-285.28" font-family="Times,serif" font-size="14.00"> 1 </text>
</g>
<!-- node_18 -->
<g id="node_18" class="node">
<title>node_18</title>
<g id="a_node_18"><a xlink:title="prisoner_dies_if_rifleman_A_shoots">
<polygon fill="#ffffff" stroke="black" points="472.5,-158.74 257.5,-158.74 257.5,-120.74 472.5,-120.74 472.5,-158.74"/>
<text text-anchor="middle" x="365" y="-143.54" font-family="Times,serif" font-size="14.00" fill="#000000">prisoner_dies_if_rifleman_A_shoots</text>
<text text-anchor="middle" x="365" y="-128.54" font-family="Times,serif" font-size="14.00" fill="#000000">True</text>
</a>
</g>
</g>
<!-- node_10 -->
<g id="node_10" class="node">
<title>node_10</title>
<g id="a_node_10"><a xlink:title="Prisoner = Dead">
<ellipse fill="#ffffff" stroke="black" cx="233" cy="-42.87" rx="74.91" ry="26.74"/>
<text text-anchor="middle" x="233" y="-46.67" font-family="Times,serif" font-size="14.00" fill="#000000">Prisoner = Dead</text>
<text text-anchor="middle" x="233" y="-31.67" font-family="Times,serif" font-size="14.00" fill="#000000">{}</text>
</a>
</g>
</g>
<!-- node_18&#45;&gt;node_10 -->
<g id="edge17" class="edge">
<title>node_18&#45;&gt;node_10</title>
<path fill="none" stroke="black" d="M339.86,-120.67C321.24,-107.29 295.46,-88.76 273.89,-73.26"/>
<polygon fill="black" stroke="black" points="275.71,-70.26 265.55,-67.26 271.63,-75.94 275.71,-70.26"/>
<text text-anchor="middle" x="321.5" y="-91.54" font-family="Times,serif" font-size="14.00"> 1 </text>
</g>
<!-- node_9 -->
<g id="node_9" class="node">
<title>node_9</title>
<g id="a_node_9"><a xlink:title="Prisoner = Alive">
<ellipse fill="#ffffff" stroke="black" cx="859" cy="-42.87" rx="75.82" ry="26.74"/>
<text text-anchor="middle" x="859" y="-46.67" font-family="Times,serif" font-size="14.00" fill="#000000">Prisoner = Alive</text>
<text text-anchor="middle" x="859" y="-31.67" font-family="Times,serif" font-size="14.00" fill="#000000">{}</text>
</a>
</g>
</g>
<!-- node_20&#45;&gt;node_9 -->
<g id="edge22" class="edge">
<title>node_20&#45;&gt;node_9</title>
<path fill="none" stroke="black" d="M859,-120.45C859,-109.03 859,-93.95 859,-80.18"/>
<polygon fill="black" stroke="black" points="862.5,-80 859,-70 855.5,-80 862.5,-80"/>
<text text-anchor="middle" x="866.5" y="-91.54" font-family="Times,serif" font-size="14.00"> 1 </text>
</g>
<!-- node_6 -->
<g id="node_6" class="node">
<title>node_6</title>
<g id="a_node_6"><a xlink:title="RiflemanA = Shoot">
<ellipse fill="#ffffff" stroke="black" cx="366" cy="-236.61" rx="86.95" ry="26.74"/>
<text text-anchor="middle" x="366" y="-240.41" font-family="Times,serif" font-size="14.00" fill="#000000">RiflemanA = Shoot</text>
<text text-anchor="middle" x="366" y="-225.41" font-family="Times,serif" font-size="14.00" fill="#000000">{}</text>
</a>
</g>
</g>
<!-- node_6&#45;&gt;node_18 -->
<g id="edge16" class="edge">
<title>node_6&#45;&gt;node_18</title>
<path fill="none" stroke="black" d="M365.73,-209.69C365.59,-197.09 365.43,-181.91 365.3,-169.02"/>
<polygon fill="black" stroke="black" points="368.8,-168.78 365.19,-158.82 361.8,-168.86 368.8,-168.78"/>
<text text-anchor="middle" x="372.5" y="-180.54" font-family="Times,serif" font-size="14.00"> 1 </text>
</g>
<!-- node_15 -->
<g id="node_15" class="node">
<title>node_15</title>
<g id="a_node_15"><a xlink:title="rifleman_A_does_not_shoot_if_captain_does_not_signal">
<polygon fill="#ffffff" stroke="black" points="1171,-352.48 845,-352.48 845,-314.48 1171,-314.48 1171,-352.48"/>
<text text-anchor="middle" x="1008" y="-337.28" font-family="Times,serif" font-size="14.00" fill="#000000">rifleman_A_does_not_shoot_if_captain_does_not_signal</text>
<text text-anchor="middle" x="1008" y="-322.28" font-family="Times,serif" font-size="14.00" fill="#000000">True</text>
</a>
</g>
</g>
<!-- node_15&#45;&gt;node_5 -->
<g id="edge11" class="edge">
<title>node_15&#45;&gt;node_5</title>
<path fill="none" stroke="black" d="M1003.37,-314.19C1000.46,-302.66 996.59,-287.39 993.08,-273.52"/>
<polygon fill="black" stroke="black" points="996.46,-272.57 990.61,-263.74 989.67,-274.29 996.46,-272.57"/>
<text text-anchor="middle" x="1005.5" y="-285.28" font-family="Times,serif" font-size="14.00"> 1 </text>
</g>
<!-- node_4&#45;&gt;node_17 -->
<g id="edge14" class="edge">
<title>node_4&#45;&gt;node_17</title>
<path fill="none" stroke="black" d="M664,-403.43C664,-390.83 664,-375.65 664,-362.76"/>
<polygon fill="black" stroke="black" points="667.5,-362.56 664,-352.56 660.5,-362.56 667.5,-362.56"/>
<text text-anchor="middle" x="671.5" y="-374.28" font-family="Times,serif" font-size="14.00"> 1 </text>
</g>
<!-- node_4&#45;&gt;node_15 -->
<g id="edge10" class="edge">
<title>node_4&#45;&gt;node_15</title>
<path fill="none" stroke="black" d="M727.9,-411.73C785.87,-395.74 871.41,-372.15 932.69,-355.25"/>
<polygon fill="black" stroke="black" points="933.98,-358.52 942.69,-352.49 932.12,-351.78 933.98,-358.52"/>
<text text-anchor="middle" x="883.5" y="-374.28" font-family="Times,serif" font-size="14.00"> 1 </text>
</g>
<!-- node_1&#45;&gt;node_13 -->
<g id="edge6" class="edge">
<title>node_1&#45;&gt;node_13</title>
<path fill="none" stroke="black" d="M644.55,-597.17C644.81,-584.57 645.13,-569.4 645.4,-556.5"/>
<polygon fill="black" stroke="black" points="648.91,-556.37 645.62,-546.3 641.91,-556.23 648.91,-556.37"/>
<text text-anchor="middle" x="652.5" y="-568.02" font-family="Times,serif" font-size="14.00"> 1 </text>
</g>
<!-- node_14&#45;&gt;node_6 -->
<g id="edge9" class="edge">
<title>node_14&#45;&gt;node_6</title>
<path fill="none" stroke="black" d="M370.04,-314.19C369.43,-302.78 368.64,-287.69 367.91,-273.92"/>
<polygon fill="black" stroke="black" points="371.4,-273.54 367.38,-263.74 364.41,-273.91 371.4,-273.54"/>
<text text-anchor="middle" x="376.5" y="-285.28" font-family="Times,serif" font-size="14.00"> 1 </text>
</g>
<!-- node_12&#45;&gt;node_3 -->
<g id="edge5" class="edge">
<title>node_12&#45;&gt;node_3</title>
<path fill="none" stroke="black" d="M380.69,-507.93C379.24,-496.52 377.33,-481.43 375.59,-467.66"/>
<polygon fill="black" stroke="black" points="379.03,-466.96 374.3,-457.48 372.09,-467.84 379.03,-466.96"/>
<text text-anchor="middle" x="385.5" y="-479.02" font-family="Times,serif" font-size="14.00"> 1 </text>
</g>
<!-- node_19 -->
<g id="node_19" class="node">
<title>node_19</title>
<g id="a_node_19"><a xlink:title="prisoner_dies_if_rifleman_B_shoots">
<polygon fill="#ffffff" stroke="black" points="238,-158.74 24,-158.74 24,-120.74 238,-120.74 238,-158.74"/>
<text text-anchor="middle" x="131" y="-143.54" font-family="Times,serif" font-size="14.00" fill="#000000">prisoner_dies_if_rifleman_B_shoots</text>
<text text-anchor="middle" x="131" y="-128.54" font-family="Times,serif" font-size="14.00" fill="#000000">True</text>
</a>
</g>
</g>
<!-- node_8&#45;&gt;node_19 -->
<g id="edge18" class="edge">
<title>node_8&#45;&gt;node_19</title>
<path fill="none" stroke="black" d="M129.55,-209.69C129.81,-197.09 130.13,-181.91 130.4,-169.02"/>
<polygon fill="black" stroke="black" points="133.91,-168.89 130.62,-158.82 126.91,-168.75 133.91,-168.89"/>
<text text-anchor="middle" x="137.5" y="-180.54" font-family="Times,serif" font-size="14.00"> 1 </text>
</g>
<!-- node_0 -->
<g id="node_0" class="node">
<title>node_0</title>
<g id="a_node_0"><a xlink:title="Init">
<ellipse fill="#ffffff" stroke="black" cx="530" cy="-817.83" rx="27" ry="26.74"/>
<text text-anchor="middle" x="530" y="-821.63" font-family="Times,serif" font-size="14.00" fill="#000000">Init</text>
<text text-anchor="middle" x="530" y="-806.63" font-family="Times,serif" font-size="14.00" fill="#000000">{}</text>
</a>
</g>
</g>
<!-- node_0&#45;&gt;node_11 -->
<g id="edge1" class="edge">
<title>node_0&#45;&gt;node_11</title>
<path fill="none" stroke="black" d="M530,-790.91C530,-778.31 530,-763.14 530,-750.24"/>
<polygon fill="black" stroke="black" points="533.5,-750.04 530,-740.04 526.5,-750.04 533.5,-750.04"/>
<text text-anchor="middle" x="537.5" y="-761.76" font-family="Times,serif" font-size="14.00"> 1 </text>
</g>
<!-- node_19&#45;&gt;node_10 -->
<g id="edge19" class="edge">
<title>node_19&#45;&gt;node_10</title>
<path fill="none" stroke="black" d="M150.67,-120.45C164.4,-107.68 183.08,-90.3 199.17,-75.33"/>
<polygon fill="black" stroke="black" points="201.89,-77.58 206.83,-68.21 197.13,-72.46 201.89,-77.58"/>
<text text-anchor="middle" x="192.5" y="-91.54" font-family="Times,serif" font-size="14.00"> 1 </text>
</g>
</g>
</svg>
