<?xml version="1.0" encoding="UTF-8" standalone="no"?>
<!DOCTYPE svg PUBLIC "-//W3C//DTD SVG 1.1//EN"
 "http://www.w3.org/Graphics/SVG/1.1/DTD/svg11.dtd">
<!-- Generated by graphviz version 2.47.3 (20210619.1520)
 -->
<!-- Pages: 1 -->
<svg width="849pt" height="869pt"
 viewBox="0.00 0.00 849.00 868.70" xmlns="http://www.w3.org/2000/svg" xmlns:xlink="http://www.w3.org/1999/xlink">
<g id="graph0" class="graph" transform="scale(1 1) rotate(0) translate(4 864.7)">
<polygon fill="white" stroke="transparent" points="-4,4 -4,-864.7 845,-864.7 845,4 -4,4"/>
<g id="clust1" class="cluster">
<title>cluster_140672536719424</title>
</g>
<!-- node_12 -->
<g id="node_12" class="node">
<title>node_12</title>
<g id="a_node_12"><a xlink:title="captain_signals_if_court_orders">
<polygon fill="#ffffff" stroke="black" points="719,-546.22 523,-546.22 523,-508.22 719,-508.22 719,-546.22"/>
<text text-anchor="middle" x="621" y="-531.02" font-family="Times,serif" font-size="14.00" fill="#000000">captain_signals_if_court_orders</text>
<text text-anchor="middle" x="621" y="-516.02" font-family="Times,serif" font-size="14.00" fill="#000000">True</text>
</a>
</g>
</g>
<!-- node_3 -->
<g id="node_3" class="node">
<title>node_3</title>
<g id="a_node_3"><a xlink:title="Captain = Signal">
<ellipse fill="#ffffff" stroke="black" cx="634" cy="-430.35" rx="78.48" ry="26.74"/>
<text text-anchor="middle" x="634" y="-434.15" font-family="Times,serif" font-size="14.00" fill="#000000">Captain = Signal</text>
<text text-anchor="middle" x="634" y="-419.15" font-family="Times,serif" font-size="14.00" fill="#000000">{}</text>
</a>
</g>
</g>
<!-- node_12&#45;&gt;node_3 -->
<g id="edge5" class="edge">
<title>node_12&#45;&gt;node_3</title>
<path fill="none" stroke="black" d="M623.51,-507.93C625.07,-496.52 627.14,-481.43 629.02,-467.66"/>
<polygon fill="black" stroke="black" points="632.53,-467.86 630.42,-457.48 625.59,-466.91 632.53,-467.86"/>
<text text-anchor="middle" x="634" y="-479.02" font-family="Times,serif" font-size="14.00"> 1 </text>
</g>
<!-- node_18 -->
<g id="node_18" class="node">
<title>node_18</title>
<g id="a_node_18"><a xlink:title="prisoner_lives_if_riflemen_A_and_B_do_not_shoot">
<polygon fill="#ffffff" stroke="black" points="336.5,-158.74 27.5,-158.74 27.5,-120.74 336.5,-120.74 336.5,-158.74"/>
<text text-anchor="middle" x="182" y="-143.54" font-family="Times,serif" font-size="14.00" fill="#000000">prisoner_lives_if_riflemen_A_and_B_do_not_shoot</text>
<text text-anchor="middle" x="182" y="-128.54" font-family="Times,serif" font-size="14.00" fill="#000000">True</text>
</a>
</g>
</g>
<!-- node_9 -->
<g id="node_9" class="node">
<title>node_9</title>
<g id="a_node_9"><a xlink:title="Prisoner = Alive">
<ellipse fill="#ffffff" stroke="black" cx="182" cy="-42.87" rx="76.24" ry="26.74"/>
<text text-anchor="middle" x="182" y="-46.67" font-family="Times,serif" font-size="14.00" fill="#000000">Prisoner = Alive</text>
<text text-anchor="middle" x="182" y="-31.67" font-family="Times,serif" font-size="14.00" fill="#000000">{}</text>
</a>
</g>
</g>
<!-- node_18&#45;&gt;node_9 -->
<g id="edge18" class="edge">
<title>node_18&#45;&gt;node_9</title>
<path fill="none" stroke="black" d="M182,-120.45C182,-109.03 182,-93.95 182,-80.18"/>
<polygon fill="black" stroke="black" points="185.5,-80 182,-70 178.5,-80 185.5,-80"/>
<text text-anchor="middle" x="189" y="-91.54" font-family="Times,serif" font-size="14.00"> 1 </text>
</g>
<!-- node_10 -->
<g id="node_10" class="node">
<title>node_10</title>
<g id="a_node_10"><a xlink:title="Prisoner = Dead">
<ellipse fill="#ffffff" stroke="black" cx="595" cy="-42.87" rx="76.24" ry="26.74"/>
<text text-anchor="middle" x="595" y="-46.67" font-family="Times,serif" font-size="14.00" fill="#000000">Prisoner = Dead</text>
<text text-anchor="middle" x="595" y="-31.67" font-family="Times,serif" font-size="14.00" fill="#000000">{}</text>
</a>
</g>
</g>
<!-- node_2 -->
<g id="node_2" class="node">
<title>node_2</title>
<g id="a_node_2"><a xlink:title="Court = Order">
<ellipse fill="#ffffff" stroke="black" cx="600" cy="-624.09" rx="67.76" ry="26.74"/>
<text text-anchor="middle" x="600" y="-627.89" font-family="Times,serif" font-size="14.00" fill="#000000">Court = Order</text>
<text text-anchor="middle" x="600" y="-612.89" font-family="Times,serif" font-size="14.00" fill="#000000">{}</text>
</a>
</g>
</g>
<!-- node_2&#45;&gt;node_12 -->
<g id="edge4" class="edge">
<title>node_2&#45;&gt;node_12</title>
<path fill="none" stroke="black" d="M605.74,-597.17C608.56,-584.44 611.95,-569.09 614.83,-556.11"/>
<polygon fill="black" stroke="black" points="618.25,-556.82 617,-546.3 611.42,-555.31 618.25,-556.82"/>
<text text-anchor="middle" x="619" y="-568.02" font-family="Times,serif" font-size="14.00"> 1 </text>
</g>
<!-- node_11 -->
<g id="node_11" class="node">
<title>node_11</title>
<g id="a_node_11"><a xlink:title="court_decision_is_unknown">
<polygon fill="#ffffff" stroke="black" points="578,-739.96 404,-739.96 404,-701.96 578,-701.96 578,-739.96"/>
<text text-anchor="middle" x="491" y="-724.76" font-family="Times,serif" font-size="14.00" fill="#000000">court_decision_is_unknown</text>
<text text-anchor="middle" x="491" y="-709.76" font-family="Times,serif" font-size="14.00" fill="#000000">True</text>
</a>
</g>
</g>
<!-- node_11&#45;&gt;node_2 -->
<g id="edge3" class="edge">
<title>node_11&#45;&gt;node_2</title>
<path fill="none" stroke="black" d="M511.76,-701.89C526.76,-688.84 547.38,-670.89 564.91,-655.63"/>
<polygon fill="black" stroke="black" points="567.47,-658.04 572.72,-648.84 562.88,-652.76 567.47,-658.04"/>
<text text-anchor="middle" x="555" y="-672.76" font-family="Times,serif" font-size="14.00"> 0 </text>
</g>
<!-- node_1 -->
<g id="node_1" class="node">
<title>node_1</title>
<g id="a_node_1"><a xlink:title="Court = NoOrder">
<ellipse fill="#ffffff" stroke="black" cx="384" cy="-624.09" rx="79.81" ry="26.74"/>
<text text-anchor="middle" x="384" y="-627.89" font-family="Times,serif" font-size="14.00" fill="#000000">Court = NoOrder</text>
<text text-anchor="middle" x="384" y="-612.89" font-family="Times,serif" font-size="14.00" fill="#000000">{}</text>
</a>
</g>
</g>
<!-- node_11&#45;&gt;node_1 -->
<g id="edge2" class="edge">
<title>node_11&#45;&gt;node_1</title>
<path fill="none" stroke="black" d="M470.62,-701.89C456.11,-689.03 436.24,-671.4 419.19,-656.29"/>
<polygon fill="black" stroke="black" points="421.38,-653.56 411.58,-649.54 416.74,-658.8 421.38,-653.56"/>
<text text-anchor="middle" x="457" y="-672.76" font-family="Times,serif" font-size="14.00"> 1 </text>
</g>
<!-- node_4 -->
<g id="node_4" class="node">
<title>node_4</title>
<g id="a_node_4"><a xlink:title="Captain = NoSignal">
<ellipse fill="#ffffff" stroke="black" cx="327" cy="-430.35" rx="90.52" ry="26.74"/>
<text text-anchor="middle" x="327" y="-434.15" font-family="Times,serif" font-size="14.00" fill="#000000">Captain = NoSignal</text>
<text text-anchor="middle" x="327" y="-419.15" font-family="Times,serif" font-size="14.00" fill="#000000">{}</text>
</a>
</g>
</g>
<!-- node_15 -->
<g id="node_15" class="node">
<title>node_15</title>
<g id="a_node_15"><a xlink:title="rifleman_B_does_not_shoot_if_captain_does_not_signal">
<polygon fill="#ffffff" stroke="black" points="463.5,-352.48 128.5,-352.48 128.5,-314.48 463.5,-314.48 463.5,-352.48"/>
<text text-anchor="middle" x="296" y="-337.28" font-family="Times,serif" font-size="14.00" fill="#000000">rifleman_B_does_not_shoot_if_captain_does_not_signal</text>
<text text-anchor="middle" x="296" y="-322.28" font-family="Times,serif" font-size="14.00" fill="#000000">True</text>
</a>
</g>
</g>
<!-- node_4&#45;&gt;node_15 -->
<g id="edge10" class="edge">
<title>node_4&#45;&gt;node_15</title>
<path fill="none" stroke="black" d="M318.53,-403.43C314.37,-390.7 309.36,-375.35 305.11,-362.37"/>
<polygon fill="black" stroke="black" points="308.34,-360.98 301.91,-352.56 301.69,-363.15 308.34,-360.98"/>
<text text-anchor="middle" x="319" y="-374.28" font-family="Times,serif" font-size="14.00"> 1 </text>
</g>
<!-- node_7 -->
<g id="node_7" class="node">
<title>node_7</title>
<g id="a_node_7"><a xlink:title="RiflemanB = NoShoot">
<ellipse fill="#ffffff" stroke="black" cx="116" cy="-236.61" rx="100.32" ry="26.74"/>
<text text-anchor="middle" x="116" y="-240.41" font-family="Times,serif" font-size="14.00" fill="#000000">RiflemanB = NoShoot</text>
<text text-anchor="middle" x="116" y="-225.41" font-family="Times,serif" font-size="14.00" fill="#000000">{}</text>
</a>
</g>
</g>
<!-- node_7&#45;&gt;node_18 -->
<g id="edge17" class="edge">
<title>node_7&#45;&gt;node_18</title>
<path fill="none" stroke="black" d="M134.03,-209.69C143.24,-196.46 154.42,-180.39 163.66,-167.1"/>
<polygon fill="black" stroke="black" points="166.58,-169.03 169.42,-158.82 160.84,-165.03 166.58,-169.03"/>
<text text-anchor="middle" x="163" y="-180.54" font-family="Times,serif" font-size="14.00"> 1 </text>
</g>
<!-- node_6 -->
<g id="node_6" class="node">
<title>node_6</title>
<g id="a_node_6"><a xlink:title="RiflemanA = Shoot">
<ellipse fill="#ffffff" stroke="black" cx="542" cy="-236.61" rx="88.28" ry="26.74"/>
<text text-anchor="middle" x="542" y="-240.41" font-family="Times,serif" font-size="14.00" fill="#000000">RiflemanA = Shoot</text>
<text text-anchor="middle" x="542" y="-225.41" font-family="Times,serif" font-size="14.00" fill="#000000">{}</text>
</a>
</g>
</g>
<!-- node_16 -->
<g id="node_16" class="node">
<title>node_16</title>
<g id="a_node_16"><a xlink:title="prisoner_dies_if_rifleman_A_shoots">
<polygon fill="#ffffff" stroke="black" points="586.5,-158.74 365.5,-158.74 365.5,-120.74 586.5,-120.74 586.5,-158.74"/>
<text text-anchor="middle" x="476" y="-143.54" font-family="Times,serif" font-size="14.00" fill="#000000">prisoner_dies_if_rifleman_A_shoots</text>
<text text-anchor="middle" x="476" y="-128.54" font-family="Times,serif" font-size="14.00" fill="#000000">True</text>
</a>
</g>
</g>
<!-- node_6&#45;&gt;node_16 -->
<g id="edge12" class="edge">
<title>node_6&#45;&gt;node_16</title>
<path fill="none" stroke="black" d="M524.31,-210.19C515.1,-196.95 503.85,-180.77 494.52,-167.37"/>
<polygon fill="black" stroke="black" points="497.3,-165.22 488.71,-159.01 491.55,-169.22 497.3,-165.22"/>
<text text-anchor="middle" x="517" y="-180.54" font-family="Times,serif" font-size="14.00"> 1 </text>
</g>
<!-- node_8 -->
<g id="node_8" class="node">
<title>node_8</title>
<g id="a_node_8"><a xlink:title="RiflemanB = Shoot">
<ellipse fill="#ffffff" stroke="black" cx="737" cy="-236.61" rx="88.28" ry="26.74"/>
<text text-anchor="middle" x="737" y="-240.41" font-family="Times,serif" font-size="14.00" fill="#000000">RiflemanB = Shoot</text>
<text text-anchor="middle" x="737" y="-225.41" font-family="Times,serif" font-size="14.00" fill="#000000">{}</text>
</a>
</g>
</g>
<!-- node_17 -->
<g id="node_17" class="node">
<title>node_17</title>
<g id="a_node_17"><a xlink:title="prisoner_dies_if_rifleman_B_shoots">
<polygon fill="#ffffff" stroke="black" points="825,-158.74 605,-158.74 605,-120.74 825,-120.74 825,-158.74"/>
<text text-anchor="middle" x="715" y="-143.54" font-family="Times,serif" font-size="14.00" fill="#000000">prisoner_dies_if_rifleman_B_shoots</text>
<text text-anchor="middle" x="715" y="-128.54" font-family="Times,serif" font-size="14.00" fill="#000000">True</text>
</a>
</g>
</g>
<!-- node_8&#45;&gt;node_17 -->
<g id="edge14" class="edge">
<title>node_8&#45;&gt;node_17</title>
<path fill="none" stroke="black" d="M730.99,-209.69C728.04,-196.96 724.48,-181.61 721.47,-168.63"/>
<polygon fill="black" stroke="black" points="724.86,-167.77 719.19,-158.82 718.04,-169.35 724.86,-167.77"/>
<text text-anchor="middle" x="733" y="-180.54" font-family="Times,serif" font-size="14.00"> 1 </text>
</g>
<!-- node_17&#45;&gt;node_10 -->
<g id="edge15" class="edge">
<title>node_17&#45;&gt;node_10</title>
<path fill="none" stroke="black" d="M692.15,-120.67C675.49,-107.5 652.53,-89.35 633.11,-74"/>
<polygon fill="black" stroke="black" points="635.05,-71.07 625.03,-67.61 630.71,-76.56 635.05,-71.07"/>
<text text-anchor="middle" x="676" y="-91.54" font-family="Times,serif" font-size="14.00"> 1 </text>
</g>
<!-- node_14 -->
<g id="node_14" class="node">
<title>node_14</title>
<g id="a_node_14"><a xlink:title="rifleman_B_shoots_if_captain_signals">
<polygon fill="#ffffff" stroke="black" points="768.5,-352.48 537.5,-352.48 537.5,-314.48 768.5,-314.48 768.5,-352.48"/>
<text text-anchor="middle" x="653" y="-337.28" font-family="Times,serif" font-size="14.00" fill="#000000">rifleman_B_shoots_if_captain_signals</text>
<text text-anchor="middle" x="653" y="-322.28" font-family="Times,serif" font-size="14.00" fill="#000000">True</text>
</a>
</g>
</g>
<!-- node_14&#45;&gt;node_8 -->
<g id="edge9" class="edge">
<title>node_14&#45;&gt;node_8</title>
<path fill="none" stroke="black" d="M669.2,-314.19C680.14,-301.83 694.89,-285.17 707.85,-270.54"/>
<polygon fill="black" stroke="black" points="710.81,-272.47 714.82,-262.66 705.57,-267.83 710.81,-272.47"/>
<text text-anchor="middle" x="704" y="-285.28" font-family="Times,serif" font-size="14.00"> 1 </text>
</g>
<!-- node_0 -->
<g id="node_0" class="node">
<title>node_0</title>
<g id="a_node_0"><a xlink:title="Init">
<ellipse fill="#ffffff" stroke="black" cx="491" cy="-817.83" rx="27" ry="26.74"/>
<text text-anchor="middle" x="491" y="-821.63" font-family="Times,serif" font-size="14.00" fill="#000000">Init</text>
<text text-anchor="middle" x="491" y="-806.63" font-family="Times,serif" font-size="14.00" fill="#000000">{}</text>
</a>
</g>
</g>
<!-- node_0&#45;&gt;node_11 -->
<g id="edge1" class="edge">
<title>node_0&#45;&gt;node_11</title>
<path fill="none" stroke="black" d="M491,-790.91C491,-778.31 491,-763.14 491,-750.24"/>
<polygon fill="black" stroke="black" points="494.5,-750.04 491,-740.04 487.5,-750.04 494.5,-750.04"/>
<text text-anchor="middle" x="498" y="-761.76" font-family="Times,serif" font-size="14.00"> 1 </text>
</g>
<!-- node_15&#45;&gt;node_7 -->
<g id="edge11" class="edge">
<title>node_15&#45;&gt;node_7</title>
<path fill="none" stroke="black" d="M261.72,-314.41C235.56,-300.62 199.04,-281.38 169.11,-265.6"/>
<polygon fill="black" stroke="black" points="170.53,-262.39 160.05,-260.83 167.27,-268.59 170.53,-262.39"/>
<text text-anchor="middle" x="234" y="-285.28" font-family="Times,serif" font-size="14.00"> 1 </text>
</g>
<!-- node_13 -->
<g id="node_13" class="node">
<title>node_13</title>
<g id="a_node_13"><a xlink:title="captain_does_not_signal_if_court_does_not_order">
<polygon fill="#ffffff" stroke="black" points="488,-546.22 188,-546.22 188,-508.22 488,-508.22 488,-546.22"/>
<text text-anchor="middle" x="338" y="-531.02" font-family="Times,serif" font-size="14.00" fill="#000000">captain_does_not_signal_if_court_does_not_order</text>
<text text-anchor="middle" x="338" y="-516.02" font-family="Times,serif" font-size="14.00" fill="#000000">True</text>
</a>
</g>
</g>
<!-- node_13&#45;&gt;node_4 -->
<g id="edge7" class="edge">
<title>node_13&#45;&gt;node_4</title>
<path fill="none" stroke="black" d="M335.88,-507.93C334.56,-496.52 332.81,-481.43 331.21,-467.66"/>
<polygon fill="black" stroke="black" points="334.66,-467.01 330.03,-457.48 327.7,-467.81 334.66,-467.01"/>
<text text-anchor="middle" x="340" y="-479.02" font-family="Times,serif" font-size="14.00"> 1 </text>
</g>
<!-- node_5 -->
<g id="node_5" class="node">
<title>node_5</title>
<g id="a_node_5"><a xlink:title="RiflemanA = NoShoot">
<ellipse fill="#ffffff" stroke="black" cx="335" cy="-236.61" rx="100.32" ry="26.74"/>
<text text-anchor="middle" x="335" y="-240.41" font-family="Times,serif" font-size="14.00" fill="#000000">RiflemanA = NoShoot</text>
<text text-anchor="middle" x="335" y="-225.41" font-family="Times,serif" font-size="14.00" fill="#000000">{}</text>
</a>
</g>
</g>
<!-- node_5&#45;&gt;node_18 -->
<g id="edge16" class="edge">
<title>node_5&#45;&gt;node_18</title>
<path fill="none" stroke="black" d="M296.39,-211.67C273,-197.17 243.28,-178.74 220,-164.3"/>
<polygon fill="black" stroke="black" points="221.76,-161.28 211.42,-158.98 218.08,-167.23 221.76,-161.28"/>
<text text-anchor="middle" x="270" y="-180.54" font-family="Times,serif" font-size="14.00"> 0 </text>
</g>
<!-- node_1&#45;&gt;node_13 -->
<g id="edge6" class="edge">
<title>node_1&#45;&gt;node_13</title>
<path fill="none" stroke="black" d="M371.43,-597.17C365.14,-584.19 357.52,-568.48 351.15,-555.34"/>
<polygon fill="black" stroke="black" points="354.28,-553.77 346.77,-546.3 347.98,-556.83 354.28,-553.77"/>
<text text-anchor="middle" x="369" y="-568.02" font-family="Times,serif" font-size="14.00"> 1 </text>
</g>
<!-- node_16&#45;&gt;node_10 -->
<g id="edge13" class="edge">
<title>node_16&#45;&gt;node_10</title>
<path fill="none" stroke="black" d="M498.66,-120.67C515.18,-107.5 537.95,-89.35 557.21,-74"/>
<polygon fill="black" stroke="black" points="559.58,-76.59 565.22,-67.61 555.21,-71.11 559.58,-76.59"/>
<text text-anchor="middle" x="546" y="-91.54" font-family="Times,serif" font-size="14.00"> 1 </text>
</g>
<!-- node_3&#45;&gt;node_14 -->
<g id="edge8" class="edge">
<title>node_3&#45;&gt;node_14</title>
<path fill="none" stroke="black" d="M639.19,-403.43C641.74,-390.7 644.81,-375.35 647.41,-362.37"/>
<polygon fill="black" stroke="black" points="650.85,-363.05 649.38,-352.56 643.98,-361.68 650.85,-363.05"/>
<text text-anchor="middle" x="652" y="-374.28" font-family="Times,serif" font-size="14.00"> 1 </text>
</g>
</g>
</svg>
