<?xml version="1.0" encoding="UTF-8" standalone="no"?>
<!DOCTYPE svg PUBLIC "-//W3C//DTD SVG 1.1//EN"
 "http://www.w3.org/Graphics/SVG/1.1/DTD/svg11.dtd">
<!-- Generated by graphviz version 3.0.0 (20220226.1711)
 -->
<!-- Pages: 1 -->
<svg width="741pt" height="907pt"
 viewBox="0.00 0.00 741.00 907.44" xmlns="http://www.w3.org/2000/svg" xmlns:xlink="http://www.w3.org/1999/xlink">
<g id="graph0" class="graph" transform="scale(1 1) rotate(0) translate(4 903.44)">
<polygon fill="white" stroke="transparent" points="-4,4 -4,-903.44 737,-903.44 737,4 -4,4"/>
<g id="clust1" class="cluster">
<title>cluster_140645604471616</title>
</g>
<!-- node_17 -->
<g id="node_17" class="node">
<title>node_17</title>
<g id="a_node_17"><a xlink:title="prisoner_dies_if_rifleman_shoots">
<polygon fill="#ffffff" stroke="black" points="330,-352.48 132,-352.48 132,-314.48 330,-314.48 330,-352.48"/>
<text text-anchor="middle" x="231" y="-337.28" font-family="Times,serif" font-size="14.00" fill="#000000">prisoner_dies_if_rifleman_shoots</text>
<text text-anchor="middle" x="231" y="-322.28" font-family="Times,serif" font-size="14.00" fill="#000000">True</text>
</a>
</g>
</g>
<!-- node_10 -->
<g id="node_10" class="node">
<title>node_10</title>
<g id="a_node_10"><a xlink:title="Prisoner = Dead">
<ellipse fill="#ffffff" stroke="black" cx="231" cy="-236.61" rx="74.91" ry="26.74"/>
<text text-anchor="middle" x="231" y="-240.41" font-family="Times,serif" font-size="14.00" fill="#000000">Prisoner = Dead</text>
<text text-anchor="middle" x="231" y="-225.41" font-family="Times,serif" font-size="14.00" fill="#000000">{}</text>
</a>
</g>
</g>
<!-- node_17&#45;&gt;node_10 -->
<g id="edge24" class="edge">
<title>node_17&#45;&gt;node_10</title>
<path fill="none" stroke="black" d="M231,-314.19C231,-302.78 231,-287.69 231,-273.92"/>
<polygon fill="black" stroke="black" points="234.5,-273.74 231,-263.74 227.5,-273.74 234.5,-273.74"/>
<text text-anchor="middle" x="238.5" y="-285.28" font-family="Times,serif" font-size="14.00"> 1 </text>
</g>
<!-- node_11 -->
<g id="node_11" class="node">
<title>node_11</title>
<g id="a_node_11"><a xlink:title="initialize_model">
<polygon fill="#ffffff" stroke="black" points="372.5,-778.7 267.5,-778.7 267.5,-740.7 372.5,-740.7 372.5,-778.7"/>
<text text-anchor="middle" x="320" y="-763.5" font-family="Times,serif" font-size="14.00" fill="#000000">initialize_model</text>
<text text-anchor="middle" x="320" y="-748.5" font-family="Times,serif" font-size="14.00" fill="#000000">True</text>
</a>
</g>
</g>
<!-- node_6 -->
<g id="node_6" class="node">
<title>node_6</title>
<g id="a_node_6"><a xlink:title="Rifleman = Standby">
<ellipse fill="#ffffff" stroke="black" cx="196" cy="-662.83" rx="89.61" ry="26.74"/>
<text text-anchor="middle" x="196" y="-666.63" font-family="Times,serif" font-size="14.00" fill="#000000">Rifleman = Standby</text>
<text text-anchor="middle" x="196" y="-651.63" font-family="Times,serif" font-size="14.00" fill="#000000">{}</text>
</a>
</g>
</g>
<!-- node_11&#45;&gt;node_6 -->
<g id="edge3" class="edge">
<title>node_11&#45;&gt;node_6</title>
<path fill="none" stroke="black" d="M296.38,-740.63C279.34,-727.59 255.91,-709.67 235.98,-694.42"/>
<polygon fill="black" stroke="black" points="238.03,-691.58 227.96,-688.28 233.78,-697.14 238.03,-691.58"/>
<text text-anchor="middle" x="279.5" y="-711.5" font-family="Times,serif" font-size="14.00"> 5 </text>
</g>
<!-- node_1 -->
<g id="node_1" class="node">
<title>node_1</title>
<g id="a_node_1"><a xlink:title="Environment">
<ellipse fill="#ffffff" stroke="black" cx="410" cy="-662.83" rx="62.45" ry="26.74"/>
<text text-anchor="middle" x="410" y="-666.63" font-family="Times,serif" font-size="14.00" fill="#000000">Environment</text>
<text text-anchor="middle" x="410" y="-651.63" font-family="Times,serif" font-size="14.00" fill="#000000">{}</text>
</a>
</g>
</g>
<!-- node_11&#45;&gt;node_1 -->
<g id="edge2" class="edge">
<title>node_11&#45;&gt;node_1</title>
<path fill="none" stroke="black" d="M337.35,-740.41C349.36,-727.75 365.65,-710.58 379.76,-695.7"/>
<polygon fill="black" stroke="black" points="382.57,-697.83 386.91,-688.17 377.49,-693.02 382.57,-697.83"/>
<text text-anchor="middle" x="374.5" y="-711.5" font-family="Times,serif" font-size="14.00"> 1 </text>
</g>
<!-- node_9 -->
<g id="node_9" class="node">
<title>node_9</title>
<g id="a_node_9"><a xlink:title="Prisoner = Alive">
<ellipse fill="#ffffff" stroke="black" cx="320" cy="-591.09" rx="75.82" ry="26.74"/>
<text text-anchor="middle" x="320" y="-594.89" font-family="Times,serif" font-size="14.00" fill="#000000">Prisoner = Alive</text>
<text text-anchor="middle" x="320" y="-579.89" font-family="Times,serif" font-size="14.00" fill="#000000">{}</text>
</a>
</g>
</g>
<!-- node_11&#45;&gt;node_9 -->
<g id="edge4" class="edge">
<title>node_11&#45;&gt;node_9</title>
<path fill="none" stroke="black" d="M320,-740.55C320,-713.73 320,-662.93 320,-628.3"/>
<polygon fill="black" stroke="black" points="323.5,-628.12 320,-618.12 316.5,-628.12 323.5,-628.12"/>
<text text-anchor="middle" x="327.5" y="-711.5" font-family="Times,serif" font-size="14.00"> 1 </text>
</g>
<!-- node_2 -->
<g id="node_2" class="node">
<title>node_2</title>
<g id="a_node_2"><a xlink:title="Court = NoOrder">
<ellipse fill="#ffffff" stroke="black" cx="639" cy="-430.35" rx="78.48" ry="26.74"/>
<text text-anchor="middle" x="639" y="-434.15" font-family="Times,serif" font-size="14.00" fill="#000000">Court = NoOrder</text>
<text text-anchor="middle" x="639" y="-419.15" font-family="Times,serif" font-size="14.00" fill="#000000">{}</text>
</a>
</g>
</g>
<!-- node_14 -->
<g id="node_14" class="node">
<title>node_14</title>
<g id="a_node_14"><a xlink:title="captain_does_not_signal_if_court_does_not_order">
<polygon fill="#ffffff" stroke="black" points="717,-352.48 427,-352.48 427,-314.48 717,-314.48 717,-352.48"/>
<text text-anchor="middle" x="572" y="-337.28" font-family="Times,serif" font-size="14.00" fill="#000000">captain_does_not_signal_if_court_does_not_order</text>
<text text-anchor="middle" x="572" y="-322.28" font-family="Times,serif" font-size="14.00" fill="#000000">True</text>
</a>
</g>
</g>
<!-- node_2&#45;&gt;node_14 -->
<g id="edge11" class="edge">
<title>node_2&#45;&gt;node_14</title>
<path fill="none" stroke="black" d="M621.54,-404.07C614.29,-393.64 605.78,-381.45 598,-370.48 595.82,-367.41 593.52,-364.19 591.24,-361.01"/>
<polygon fill="black" stroke="black" points="593.97,-358.82 585.29,-352.75 588.29,-362.91 593.97,-358.82"/>
<text text-anchor="middle" x="615.5" y="-374.28" font-family="Times,serif" font-size="14.00"> 1 </text>
</g>
<!-- node_3 -->
<g id="node_3" class="node">
<title>node_3</title>
<g id="a_node_3"><a xlink:title="Court = Order">
<ellipse fill="#ffffff" stroke="black" cx="475" cy="-430.35" rx="67.35" ry="26.74"/>
<text text-anchor="middle" x="475" y="-434.15" font-family="Times,serif" font-size="14.00" fill="#000000">Court = Order</text>
<text text-anchor="middle" x="475" y="-419.15" font-family="Times,serif" font-size="14.00" fill="#000000">{}</text>
</a>
</g>
</g>
<!-- node_13 -->
<g id="node_13" class="node">
<title>node_13</title>
<g id="a_node_13"><a xlink:title="captain_signals_if_court_orders">
<polygon fill="#ffffff" stroke="black" points="529,-546.22 339,-546.22 339,-508.22 529,-508.22 529,-546.22"/>
<text text-anchor="middle" x="434" y="-531.02" font-family="Times,serif" font-size="14.00" fill="#000000">captain_signals_if_court_orders</text>
<text text-anchor="middle" x="434" y="-516.02" font-family="Times,serif" font-size="14.00" fill="#000000">True</text>
</a>
</g>
</g>
<!-- node_3&#45;&gt;node_13 -->
<g id="edge8" class="edge">
<title>node_3&#45;&gt;node_13</title>
<path fill="none" stroke="black" d="M449.34,-455.4C444.41,-461.38 439.89,-468.13 437,-475.22 434.14,-482.26 432.86,-490.29 432.42,-497.87"/>
<polygon fill="black" stroke="black" points="428.91,-498.09 432.28,-508.13 435.91,-498.18 428.91,-498.09"/>
<text text-anchor="middle" x="444.5" y="-479.02" font-family="Times,serif" font-size="14.00"> 1 </text>
</g>
<!-- node_5 -->
<g id="node_5" class="node">
<title>node_5</title>
<g id="a_node_5"><a xlink:title="Captain = NoSignal">
<ellipse fill="#ffffff" stroke="black" cx="492" cy="-236.61" rx="88.28" ry="26.74"/>
<text text-anchor="middle" x="492" y="-240.41" font-family="Times,serif" font-size="14.00" fill="#000000">Captain = NoSignal</text>
<text text-anchor="middle" x="492" y="-225.41" font-family="Times,serif" font-size="14.00" fill="#000000">{}</text>
</a>
</g>
</g>
<!-- node_16 -->
<g id="node_16" class="node">
<title>node_16</title>
<g id="a_node_16"><a xlink:title="rifleman_does_not_shoot_if_captain_does_not_signal">
<polygon fill="#ffffff" stroke="black" points="608.5,-158.74 299.5,-158.74 299.5,-120.74 608.5,-120.74 608.5,-158.74"/>
<text text-anchor="middle" x="454" y="-143.54" font-family="Times,serif" font-size="14.00" fill="#000000">rifleman_does_not_shoot_if_captain_does_not_signal</text>
<text text-anchor="middle" x="454" y="-128.54" font-family="Times,serif" font-size="14.00" fill="#000000">True</text>
</a>
</g>
</g>
<!-- node_5&#45;&gt;node_16 -->
<g id="edge18" class="edge">
<title>node_5&#45;&gt;node_16</title>
<path fill="none" stroke="black" d="M482.7,-209.69C478.9,-199.38 474.37,-187.45 470,-176.74 468.88,-174.01 467.69,-171.18 466.48,-168.36"/>
<polygon fill="black" stroke="black" points="469.58,-166.71 462.36,-158.96 463.17,-169.53 469.58,-166.71"/>
<text text-anchor="middle" x="482.5" y="-180.54" font-family="Times,serif" font-size="14.00"> 1 </text>
</g>
<!-- node_13&#45;&gt;node_3 -->
<g id="edge9" class="edge">
<title>node_13&#45;&gt;node_3</title>
<path fill="none" stroke="black" d="M443.48,-508.06C446.33,-502.4 449.39,-496.1 452,-490.22 455.39,-482.59 458.79,-474.3 461.91,-466.41"/>
<polygon fill="black" stroke="black" points="465.18,-467.65 465.54,-457.06 458.66,-465.11 465.18,-467.65"/>
<text text-anchor="middle" x="465.5" y="-479.02" font-family="Times,serif" font-size="14.00"> 1 </text>
</g>
<!-- node_4 -->
<g id="node_4" class="node">
<title>node_4</title>
<g id="a_node_4"><a xlink:title="Captain = Signal">
<ellipse fill="#ffffff" stroke="black" cx="293" cy="-430.35" rx="77.15" ry="26.74"/>
<text text-anchor="middle" x="293" y="-434.15" font-family="Times,serif" font-size="14.00" fill="#000000">Captain = Signal</text>
<text text-anchor="middle" x="293" y="-419.15" font-family="Times,serif" font-size="14.00" fill="#000000">{}</text>
</a>
</g>
</g>
<!-- node_13&#45;&gt;node_4 -->
<g id="edge10" class="edge">
<title>node_13&#45;&gt;node_4</title>
<path fill="none" stroke="black" d="M407.15,-508.15C387.01,-494.6 359.03,-475.78 335.82,-460.16"/>
<polygon fill="black" stroke="black" points="337.76,-457.25 327.51,-454.57 333.85,-463.05 337.76,-457.25"/>
<text text-anchor="middle" x="387.5" y="-479.02" font-family="Times,serif" font-size="14.00"> 1 </text>
</g>
<!-- node_7 -->
<g id="node_7" class="node">
<title>node_7</title>
<g id="a_node_7"><a xlink:title="Rifleman = NoShoot">
<ellipse fill="#ffffff" stroke="black" cx="454" cy="-42.87" rx="92.76" ry="26.74"/>
<text text-anchor="middle" x="454" y="-46.67" font-family="Times,serif" font-size="14.00" fill="#000000">Rifleman = NoShoot</text>
<text text-anchor="middle" x="454" y="-31.67" font-family="Times,serif" font-size="14.00" fill="#000000">{}</text>
</a>
</g>
</g>
<!-- node_16&#45;&gt;node_5 -->
<g id="edge20" class="edge">
<title>node_16&#45;&gt;node_5</title>
<path fill="none" stroke="black" d="M449.29,-158.8C447.56,-168.83 446.9,-181.34 451,-191.74 452.55,-195.67 454.63,-199.45 457.05,-203.04"/>
<polygon fill="black" stroke="black" points="454.31,-205.22 463.17,-211.02 459.86,-200.96 454.31,-205.22"/>
<text text-anchor="middle" x="458.5" y="-180.54" font-family="Times,serif" font-size="14.00"> 1 </text>
</g>
<!-- node_16&#45;&gt;node_7 -->
<g id="edge21" class="edge">
<title>node_16&#45;&gt;node_7</title>
<path fill="none" stroke="black" d="M454,-120.45C454,-109.03 454,-93.95 454,-80.18"/>
<polygon fill="black" stroke="black" points="457.5,-80 454,-70 450.5,-80 457.5,-80"/>
<text text-anchor="middle" x="461.5" y="-91.54" font-family="Times,serif" font-size="14.00"> 1 </text>
</g>
<!-- node_8 -->
<g id="node_8" class="node">
<title>node_8</title>
<g id="a_node_8"><a xlink:title="Rifleman = Shoot">
<ellipse fill="#ffffff" stroke="black" cx="117" cy="-430.35" rx="80.72" ry="26.74"/>
<text text-anchor="middle" x="117" y="-434.15" font-family="Times,serif" font-size="14.00" fill="#000000">Rifleman = Shoot</text>
<text text-anchor="middle" x="117" y="-419.15" font-family="Times,serif" font-size="14.00" fill="#000000">{}</text>
</a>
</g>
</g>
<!-- node_8&#45;&gt;node_17 -->
<g id="edge22" class="edge">
<title>node_8&#45;&gt;node_17</title>
<path fill="none" stroke="black" d="M146.06,-405.17C162.96,-391.11 184.2,-373.43 201.22,-359.27"/>
<polygon fill="black" stroke="black" points="203.74,-361.72 209.19,-352.63 199.27,-356.34 203.74,-361.72"/>
<text text-anchor="middle" x="194.5" y="-374.28" font-family="Times,serif" font-size="14.00"> 1 </text>
</g>
<!-- node_6&#45;&gt;node_16 -->
<g id="edge19" class="edge">
<title>node_6&#45;&gt;node_16</title>
<path fill="none" stroke="black" d="M161.18,-637.69C104.04,-594.79 -0.66,-500.65 27,-403.48 54.73,-306.06 64.49,-268.48 147,-209.74 188.32,-180.32 240.06,-163.17 289.21,-153.25"/>
<polygon fill="black" stroke="black" points="290.18,-156.63 299.33,-151.3 288.85,-149.76 290.18,-156.63"/>
<text text-anchor="middle" x="43.5" y="-374.28" font-family="Times,serif" font-size="14.00"> 1 </text>
</g>
<!-- node_15 -->
<g id="node_15" class="node">
<title>node_15</title>
<g id="a_node_15"><a xlink:title="rifleman_shoots_if_captain_signals">
<polygon fill="#ffffff" stroke="black" points="300.5,-546.22 91.5,-546.22 91.5,-508.22 300.5,-508.22 300.5,-546.22"/>
<text text-anchor="middle" x="196" y="-531.02" font-family="Times,serif" font-size="14.00" fill="#000000">rifleman_shoots_if_captain_signals</text>
<text text-anchor="middle" x="196" y="-516.02" font-family="Times,serif" font-size="14.00" fill="#000000">True</text>
</a>
</g>
</g>
<!-- node_6&#45;&gt;node_15 -->
<g id="edge15" class="edge">
<title>node_6&#45;&gt;node_15</title>
<path fill="none" stroke="black" d="M196,-635.75C196,-612.97 196,-579.96 196,-556.53"/>
<polygon fill="black" stroke="black" points="199.5,-556.51 196,-546.51 192.5,-556.51 199.5,-556.51"/>
<text text-anchor="middle" x="203.5" y="-587.39" font-family="Times,serif" font-size="14.00"> 1 </text>
</g>
<!-- node_15&#45;&gt;node_8 -->
<g id="edge17" class="edge">
<title>node_15&#45;&gt;node_8</title>
<path fill="none" stroke="black" d="M180.77,-507.93C170.48,-495.57 156.6,-478.91 144.42,-464.28"/>
<polygon fill="black" stroke="black" points="146.95,-461.85 137.86,-456.4 141.57,-466.32 146.95,-461.85"/>
<text text-anchor="middle" x="172.5" y="-479.02" font-family="Times,serif" font-size="14.00"> 1 </text>
</g>
<!-- node_15&#45;&gt;node_4 -->
<g id="edge16" class="edge">
<title>node_15&#45;&gt;node_4</title>
<path fill="none" stroke="black" d="M201.93,-508.2C206.05,-497.69 212.36,-484.69 221,-475.22 226.74,-468.93 233.6,-463.22 240.76,-458.17"/>
<polygon fill="black" stroke="black" points="242.86,-460.98 249.27,-452.55 239,-455.15 242.86,-460.98"/>
<text text-anchor="middle" x="228.5" y="-479.02" font-family="Times,serif" font-size="14.00"> 1 </text>
</g>
<!-- node_4&#45;&gt;node_15 -->
<g id="edge14" class="edge">
<title>node_4&#45;&gt;node_15</title>
<path fill="none" stroke="black" d="M271.88,-456.47C262.48,-467.22 251.05,-479.68 240,-490.22 235.98,-494.05 231.61,-497.94 227.22,-501.67"/>
<polygon fill="black" stroke="black" points="224.85,-499.09 219.4,-508.17 229.33,-504.47 224.85,-499.09"/>
<text text-anchor="middle" x="260.5" y="-479.02" font-family="Times,serif" font-size="14.00"> 1 </text>
</g>
<!-- node_12 -->
<g id="node_12" class="node">
<title>node_12</title>
<g id="a_node_12"><a xlink:title="court_decision_is_unknown">
<polygon fill="#ffffff" stroke="black" points="716.5,-546.22 547.5,-546.22 547.5,-508.22 716.5,-508.22 716.5,-546.22"/>
<text text-anchor="middle" x="632" y="-531.02" font-family="Times,serif" font-size="14.00" fill="#000000">court_decision_is_unknown</text>
<text text-anchor="middle" x="632" y="-516.02" font-family="Times,serif" font-size="14.00" fill="#000000">True</text>
</a>
</g>
</g>
<!-- node_1&#45;&gt;node_12 -->
<g id="edge5" class="edge">
<title>node_1&#45;&gt;node_12</title>
<path fill="none" stroke="black" d="M445.18,-640.66C485.5,-616.39 551.39,-576.73 593.18,-551.58"/>
<polygon fill="black" stroke="black" points="595.21,-554.45 601.97,-546.29 591.6,-548.45 595.21,-554.45"/>
<text text-anchor="middle" x="573.5" y="-587.39" font-family="Times,serif" font-size="14.00"> 1 </text>
</g>
<!-- node_14&#45;&gt;node_2 -->
<g id="edge12" class="edge">
<title>node_14&#45;&gt;node_2</title>
<path fill="none" stroke="black" d="M571.1,-352.61C571.39,-362.91 573.14,-375.66 579,-385.48 582.25,-390.93 586.47,-395.91 591.17,-400.4"/>
<polygon fill="black" stroke="black" points="589.01,-403.16 598.87,-407.03 593.58,-397.85 589.01,-403.16"/>
<text text-anchor="middle" x="586.5" y="-374.28" font-family="Times,serif" font-size="14.00"> 1 </text>
</g>
<!-- node_14&#45;&gt;node_5 -->
<g id="edge13" class="edge">
<title>node_14&#45;&gt;node_5</title>
<path fill="none" stroke="black" d="M556.58,-314.19C546.23,-301.92 532.31,-285.41 520.04,-270.86"/>
<polygon fill="black" stroke="black" points="522.55,-268.41 513.43,-263.02 517.2,-272.92 522.55,-268.41"/>
<text text-anchor="middle" x="548.5" y="-285.28" font-family="Times,serif" font-size="14.00"> 1 </text>
</g>
<!-- node_12&#45;&gt;node_2 -->
<g id="edge6" class="edge">
<title>node_12&#45;&gt;node_2</title>
<path fill="none" stroke="black" d="M633.35,-507.93C634.19,-496.52 635.31,-481.43 636.32,-467.66"/>
<polygon fill="black" stroke="black" points="639.83,-467.71 637.07,-457.48 632.85,-467.19 639.83,-467.71"/>
<text text-anchor="middle" x="647.5" y="-479.02" font-family="Times,serif" font-size="14.00"> 0.5 </text>
</g>
<!-- node_12&#45;&gt;node_3 -->
<g id="edge7" class="edge">
<title>node_12&#45;&gt;node_3</title>
<path fill="none" stroke="black" d="M602.1,-508.15C578.84,-494.1 546.19,-474.37 519.81,-458.43"/>
<polygon fill="black" stroke="black" points="521.5,-455.36 511.13,-453.18 517.88,-461.35 521.5,-455.36"/>
<text text-anchor="middle" x="584.5" y="-479.02" font-family="Times,serif" font-size="14.00"> 0.5 </text>
</g>
<!-- node_9&#45;&gt;node_17 -->
<g id="edge23" class="edge">
<title>node_9&#45;&gt;node_17</title>
<path fill="none" stroke="black" d="M322.02,-564.09C323.56,-547.9 326.1,-526.71 330,-508.22 333.16,-493.23 329.94,-486.78 340,-475.22 352.53,-460.82 368.71,-473.3 379,-457.22 391.87,-437.1 391.83,-423.62 379,-403.48 365.15,-381.74 342.46,-366.74 318.97,-356.43"/>
<polygon fill="black" stroke="black" points="320.17,-353.14 309.59,-352.57 317.51,-359.61 320.17,-353.14"/>
<text text-anchor="middle" x="347.5" y="-479.02" font-family="Times,serif" font-size="14.00"> 1 </text>
</g>
<!-- node_0 -->
<g id="node_0" class="node">
<title>node_0</title>
<g id="a_node_0"><a xlink:title="Init">
<ellipse fill="#ffffff" stroke="black" cx="320" cy="-856.57" rx="27" ry="26.74"/>
<text text-anchor="middle" x="320" y="-860.37" font-family="Times,serif" font-size="14.00" fill="#000000">Init</text>
<text text-anchor="middle" x="320" y="-845.37" font-family="Times,serif" font-size="14.00" fill="#000000">{}</text>
</a>
</g>
</g>
<!-- node_0&#45;&gt;node_11 -->
<g id="edge1" class="edge">
<title>node_0&#45;&gt;node_11</title>
<path fill="none" stroke="black" d="M320,-829.65C320,-817.05 320,-801.88 320,-788.98"/>
<polygon fill="black" stroke="black" points="323.5,-788.78 320,-778.78 316.5,-788.78 323.5,-788.78"/>
<text text-anchor="middle" x="327.5" y="-800.5" font-family="Times,serif" font-size="14.00"> 1 </text>
</g>
</g>
</svg>
